<?xml version="1.0" encoding="UTF-8" standalone="no"?>
<!DOCTYPE svg PUBLIC "-//W3C//DTD SVG 1.1//EN" "http://www.w3.org/Graphics/SVG/1.1/DTD/svg11.dtd">
<svg width="100%" height="100%" viewBox="0 0 512 256" version="1.1" xmlns="http://www.w3.org/2000/svg" xmlns:xlink="http://www.w3.org/1999/xlink" xml:space="preserve" xmlns:serif="http://www.serif.com/" style="fill-rule:evenodd;clip-rule:evenodd;stroke-linejoin:round;stroke-miterlimit:2;">
    <g transform="matrix(1,0,0,1,-799.185,-376.761)">
        <g transform="matrix(48,0,0,48,965.905,575.04)">
            <path d="M0.305,0.01C0.256,0.01 0.213,0.001 0.176,-0.018C0.139,-0.036 0.111,-0.062 0.091,-0.095C0.07,-0.128 0.06,-0.166 0.06,-0.21L0.06,-0.52C0.06,-0.565 0.07,-0.603 0.091,-0.636C0.111,-0.669 0.139,-0.694 0.176,-0.713C0.213,-0.731 0.256,-0.74 0.305,-0.74C0.354,-0.74 0.396,-0.731 0.433,-0.713C0.469,-0.694 0.497,-0.669 0.518,-0.636C0.538,-0.603 0.548,-0.565 0.548,-0.52L0.398,-0.52C0.398,-0.549 0.39,-0.572 0.374,-0.587C0.357,-0.602 0.334,-0.61 0.304,-0.61C0.274,-0.61 0.251,-0.602 0.234,-0.587C0.218,-0.572 0.21,-0.549 0.21,-0.52L0.21,-0.21C0.21,-0.181 0.218,-0.159 0.234,-0.143C0.251,-0.128 0.274,-0.12 0.304,-0.12C0.334,-0.12 0.357,-0.128 0.374,-0.143C0.39,-0.159 0.398,-0.181 0.398,-0.21L0.548,-0.21C0.548,-0.166 0.538,-0.128 0.518,-0.095C0.497,-0.062 0.469,-0.036 0.433,-0.018C0.396,0.001 0.354,0.01 0.305,0.01Z" style="fill:rgb(94,110,157);fill-rule:nonzero;"/>
        </g>
        <g transform="matrix(48,0,0,48,1003.34,575.04)">
            <path d="M0.08,-0L0.08,-0.13L0.225,-0.13L0.225,-0.6L0.08,-0.6L0.08,-0.73L0.52,-0.73L0.52,-0.6L0.375,-0.6L0.375,-0.13L0.52,-0.13L0.52,-0L0.08,-0Z" style="fill:rgb(94,110,157);fill-rule:nonzero;"/>
        </g>
        <g transform="matrix(48,0,0,48,1040.78,575.04)">
            <path d="M0.065,-0L0.065,-0.73L0.3,-0.73C0.352,-0.73 0.397,-0.721 0.435,-0.703C0.473,-0.685 0.502,-0.659 0.524,-0.626C0.545,-0.593 0.555,-0.553 0.555,-0.508C0.555,-0.461 0.544,-0.418 0.521,-0.381C0.498,-0.344 0.466,-0.317 0.427,-0.3L0.565,-0L0.402,-0L0.284,-0.276L0.214,-0.276L0.214,-0L0.065,-0ZM0.214,-0.406L0.3,-0.406C0.333,-0.406 0.359,-0.414 0.378,-0.431C0.396,-0.448 0.405,-0.471 0.405,-0.501C0.405,-0.532 0.396,-0.557 0.378,-0.574C0.359,-0.591 0.333,-0.6 0.3,-0.6L0.214,-0.6L0.214,-0.406Z" style="fill:rgb(94,110,157);fill-rule:nonzero;"/>
        </g>
        <g transform="matrix(48,0,0,48,1078.22,575.04)">
            <path d="M0.4,0.18L0.288,-0.004L0.319,0.009C0.316,0.009 0.303,0.01 0.3,0.01C0.252,0.01 0.21,0.001 0.174,-0.018C0.138,-0.036 0.11,-0.062 0.09,-0.095C0.07,-0.128 0.06,-0.167 0.06,-0.21L0.06,-0.52C0.06,-0.565 0.07,-0.603 0.09,-0.636C0.11,-0.669 0.138,-0.694 0.174,-0.713C0.21,-0.731 0.252,-0.74 0.3,-0.74C0.348,-0.74 0.39,-0.731 0.426,-0.713C0.462,-0.694 0.49,-0.669 0.51,-0.635C0.53,-0.603 0.54,-0.564 0.54,-0.52L0.54,-0.21C0.54,-0.167 0.531,-0.129 0.513,-0.096C0.494,-0.063 0.468,-0.037 0.433,-0.02L0.556,0.18L0.4,0.18ZM0.3,-0.121C0.331,-0.121 0.354,-0.129 0.369,-0.144C0.383,-0.159 0.39,-0.181 0.39,-0.21L0.39,-0.52C0.39,-0.549 0.382,-0.572 0.367,-0.587C0.352,-0.602 0.329,-0.61 0.3,-0.61C0.271,-0.61 0.249,-0.602 0.234,-0.587C0.218,-0.572 0.21,-0.549 0.21,-0.52L0.21,-0.21C0.21,-0.181 0.217,-0.159 0.232,-0.144C0.247,-0.129 0.269,-0.121 0.3,-0.121Z" style="fill:rgb(222,18,180);fill-rule:nonzero;"/>
        </g>
        <g transform="matrix(48,0,0,48,1115.66,575.04)">
            <path d="M0.095,-0L0.095,-0.73L0.245,-0.73L0.245,-0.14L0.54,-0.14L0.54,-0L0.095,-0Z" style="fill:rgb(222,18,180);fill-rule:nonzero;"/>
        </g>
    </g>
    <g transform="matrix(1,0,0,1,-799.185,-318.373)">
        <g transform="matrix(20,0,0,20,895.185,554.6)">
            <path d="M0.304,0.01C0.257,0.01 0.217,0.002 0.183,-0.014C0.149,-0.03 0.123,-0.053 0.104,-0.083C0.085,-0.112 0.076,-0.148 0.075,-0.189L0.155,-0.189C0.155,-0.15 0.168,-0.118 0.195,-0.096C0.222,-0.073 0.258,-0.061 0.304,-0.061C0.348,-0.061 0.383,-0.072 0.407,-0.094C0.433,-0.116 0.445,-0.146 0.445,-0.185C0.445,-0.217 0.436,-0.245 0.419,-0.269C0.402,-0.292 0.377,-0.309 0.346,-0.318L0.251,-0.348C0.201,-0.363 0.163,-0.388 0.136,-0.424C0.109,-0.459 0.095,-0.501 0.095,-0.549C0.095,-0.588 0.104,-0.622 0.121,-0.651C0.138,-0.679 0.163,-0.701 0.195,-0.717C0.226,-0.733 0.263,-0.741 0.306,-0.741C0.369,-0.741 0.42,-0.723 0.458,-0.688C0.496,-0.653 0.515,-0.605 0.515,-0.546L0.436,-0.546C0.436,-0.584 0.424,-0.614 0.401,-0.636C0.378,-0.658 0.346,-0.669 0.305,-0.669C0.264,-0.669 0.233,-0.659 0.21,-0.64C0.187,-0.62 0.175,-0.592 0.175,-0.556C0.175,-0.525 0.184,-0.497 0.201,-0.474C0.218,-0.451 0.243,-0.434 0.274,-0.424L0.369,-0.394C0.418,-0.379 0.457,-0.353 0.484,-0.316C0.511,-0.279 0.525,-0.236 0.525,-0.187C0.525,-0.148 0.516,-0.113 0.498,-0.084C0.479,-0.054 0.454,-0.031 0.421,-0.015C0.388,0.002 0.349,0.01 0.304,0.01Z" style="fill:rgb(149,166,210);fill-rule:nonzero;"/>
        </g>
        <g transform="matrix(20,0,0,20,909.185,554.6)">
            <path d="M0.299,0.01C0.237,0.01 0.188,-0.009 0.151,-0.046C0.114,-0.083 0.095,-0.134 0.095,-0.198L0.095,-0.55L0.174,-0.55L0.174,-0.198C0.174,-0.155 0.185,-0.121 0.207,-0.097C0.23,-0.072 0.26,-0.06 0.299,-0.06C0.338,-0.06 0.369,-0.072 0.392,-0.097C0.415,-0.121 0.426,-0.155 0.426,-0.198L0.426,-0.55L0.505,-0.55L0.505,-0.198C0.505,-0.134 0.486,-0.083 0.449,-0.046C0.412,-0.009 0.362,0.01 0.299,0.01Z" style="fill:rgb(149,166,210);fill-rule:nonzero;"/>
        </g>
        <g transform="matrix(20,0,0,20,923.185,554.6)">
            <path d="M0.115,-0L0.115,-0.55L0.193,-0.55L0.193,-0.448L0.212,-0.448L0.184,-0.385C0.185,-0.441 0.198,-0.484 0.225,-0.515C0.252,-0.545 0.29,-0.56 0.34,-0.56C0.398,-0.56 0.444,-0.542 0.478,-0.505C0.513,-0.469 0.53,-0.42 0.53,-0.359L0.53,-0.326L0.449,-0.326L0.449,-0.353C0.449,-0.398 0.438,-0.432 0.416,-0.457C0.394,-0.481 0.363,-0.493 0.322,-0.493C0.283,-0.493 0.252,-0.481 0.229,-0.456C0.206,-0.431 0.195,-0.397 0.195,-0.353L0.195,-0L0.115,-0Z" style="fill:rgb(149,166,210);fill-rule:nonzero;"/>
        </g>
        <g transform="matrix(20,0,0,20,937.185,554.6)">
            <path d="M0.115,-0L0.115,-0.55L0.193,-0.55L0.193,-0.448L0.212,-0.448L0.184,-0.385C0.185,-0.441 0.198,-0.484 0.225,-0.515C0.252,-0.545 0.29,-0.56 0.34,-0.56C0.398,-0.56 0.444,-0.542 0.478,-0.505C0.513,-0.469 0.53,-0.42 0.53,-0.359L0.53,-0.326L0.449,-0.326L0.449,-0.353C0.449,-0.398 0.438,-0.432 0.416,-0.457C0.394,-0.481 0.363,-0.493 0.322,-0.493C0.283,-0.493 0.252,-0.481 0.229,-0.456C0.206,-0.431 0.195,-0.397 0.195,-0.353L0.195,-0L0.115,-0Z" style="fill:rgb(149,166,210);fill-rule:nonzero;"/>
        </g>
        <g transform="matrix(20,0,0,20,951.185,554.6)">
            <path d="M0.3,0.01C0.257,0.01 0.22,0.001 0.189,-0.016C0.158,-0.033 0.133,-0.057 0.116,-0.088C0.099,-0.119 0.09,-0.156 0.09,-0.197L0.09,-0.353C0.09,-0.395 0.099,-0.432 0.116,-0.463C0.133,-0.494 0.158,-0.518 0.189,-0.535C0.22,-0.552 0.257,-0.56 0.3,-0.56C0.343,-0.56 0.38,-0.552 0.411,-0.535C0.442,-0.518 0.467,-0.494 0.484,-0.463C0.501,-0.432 0.51,-0.395 0.51,-0.353L0.51,-0.256L0.168,-0.256L0.168,-0.197C0.168,-0.152 0.18,-0.118 0.203,-0.094C0.226,-0.069 0.258,-0.057 0.3,-0.057C0.335,-0.057 0.364,-0.064 0.387,-0.078C0.409,-0.092 0.423,-0.112 0.429,-0.139L0.508,-0.139C0.501,-0.093 0.478,-0.057 0.441,-0.03C0.404,-0.003 0.357,0.01 0.3,0.01ZM0.432,-0.309L0.432,-0.353C0.432,-0.398 0.421,-0.432 0.398,-0.457C0.375,-0.481 0.343,-0.493 0.3,-0.493C0.258,-0.493 0.226,-0.481 0.203,-0.457C0.18,-0.432 0.168,-0.398 0.168,-0.353L0.168,-0.318L0.44,-0.318L0.432,-0.309Z" style="fill:rgb(149,166,210);fill-rule:nonzero;"/>
        </g>
        <g transform="matrix(20,0,0,20,965.185,554.6)">
            <path d="M0.257,0.01C0.199,0.01 0.153,-0.005 0.12,-0.035C0.087,-0.064 0.07,-0.104 0.07,-0.155C0.07,-0.205 0.086,-0.245 0.119,-0.274C0.152,-0.303 0.196,-0.317 0.251,-0.317L0.426,-0.317L0.426,-0.375C0.426,-0.412 0.415,-0.44 0.394,-0.46C0.373,-0.48 0.342,-0.49 0.303,-0.49C0.268,-0.49 0.239,-0.482 0.217,-0.467C0.194,-0.452 0.18,-0.431 0.177,-0.405L0.097,-0.405C0.104,-0.452 0.126,-0.49 0.164,-0.518C0.201,-0.546 0.248,-0.56 0.305,-0.56C0.366,-0.56 0.415,-0.544 0.451,-0.51C0.487,-0.477 0.505,-0.433 0.505,-0.377L0.505,-0L0.427,-0L0.427,-0.107L0.414,-0.107L0.429,-0.123C0.429,-0.082 0.413,-0.05 0.382,-0.026C0.351,-0.002 0.309,0.01 0.257,0.01ZM0.276,-0.054C0.32,-0.054 0.356,-0.065 0.384,-0.087C0.412,-0.109 0.426,-0.138 0.426,-0.173L0.426,-0.256L0.252,-0.256C0.221,-0.256 0.196,-0.247 0.177,-0.23C0.158,-0.213 0.149,-0.189 0.149,-0.159C0.149,-0.127 0.16,-0.102 0.183,-0.083C0.206,-0.064 0.237,-0.054 0.276,-0.054Z" style="fill:rgb(149,166,210);fill-rule:nonzero;"/>
        </g>
        <g transform="matrix(20,0,0,20,979.185,554.6)">
            <path d="M0.372,-0C0.341,-0 0.314,-0.006 0.291,-0.018C0.268,-0.03 0.25,-0.047 0.237,-0.07C0.224,-0.093 0.218,-0.119 0.218,-0.15L0.218,-0.658L0.035,-0.658L0.035,-0.73L0.297,-0.73L0.297,-0.15C0.297,-0.125 0.304,-0.106 0.317,-0.093C0.33,-0.079 0.349,-0.072 0.372,-0.072L0.547,-0.072L0.547,-0L0.372,-0Z" style="fill:rgb(149,166,210);fill-rule:nonzero;"/>
        </g>
        <g transform="matrix(20,0,0,20,993.185,554.6)">
            <path d="M0.097,-0L0.097,-0.73L0.278,-0.73C0.325,-0.73 0.365,-0.721 0.4,-0.703C0.434,-0.685 0.46,-0.66 0.479,-0.626C0.498,-0.594 0.507,-0.555 0.507,-0.511L0.507,-0.22C0.507,-0.175 0.498,-0.137 0.479,-0.103C0.46,-0.07 0.434,-0.045 0.4,-0.027C0.365,-0.009 0.325,-0 0.278,-0L0.097,-0ZM0.176,-0.071L0.278,-0.071C0.325,-0.071 0.361,-0.084 0.388,-0.111C0.415,-0.138 0.428,-0.174 0.428,-0.22L0.428,-0.511C0.428,-0.556 0.414,-0.592 0.388,-0.619C0.361,-0.646 0.324,-0.659 0.278,-0.659L0.176,-0.659L0.176,-0.071Z" style="fill:rgb(149,166,210);fill-rule:nonzero;"/>
        </g>
        <g transform="matrix(20,0,0,20,1007.18,554.6)">
            <path d="M0.098,-0L0.098,-0.73L0.299,-0.73C0.364,-0.73 0.416,-0.713 0.453,-0.68C0.49,-0.646 0.509,-0.6 0.509,-0.541C0.509,-0.508 0.502,-0.478 0.489,-0.454C0.475,-0.429 0.456,-0.409 0.431,-0.396C0.406,-0.382 0.375,-0.375 0.34,-0.376L0.34,-0.39C0.378,-0.39 0.411,-0.383 0.439,-0.368C0.466,-0.353 0.488,-0.331 0.503,-0.303C0.518,-0.274 0.526,-0.241 0.526,-0.202C0.526,-0.161 0.517,-0.125 0.5,-0.095C0.483,-0.064 0.458,-0.041 0.426,-0.025C0.394,-0.008 0.356,-0 0.311,-0L0.098,-0ZM0.175,-0.072L0.304,-0.072C0.349,-0.072 0.384,-0.084 0.409,-0.108C0.435,-0.131 0.448,-0.163 0.448,-0.204C0.448,-0.246 0.435,-0.28 0.409,-0.306C0.384,-0.331 0.349,-0.344 0.304,-0.344L0.175,-0.344L0.175,-0.072ZM0.175,-0.413L0.299,-0.413C0.34,-0.413 0.372,-0.424 0.395,-0.446C0.418,-0.468 0.43,-0.498 0.43,-0.536C0.43,-0.574 0.419,-0.604 0.396,-0.625C0.373,-0.647 0.34,-0.658 0.299,-0.658L0.175,-0.658L0.175,-0.413Z" style="fill:rgb(149,166,210);fill-rule:nonzero;"/>
        </g>
        <g transform="matrix(20,0,0,20,1035.18,554.6)">
            <path d="M0.429,0.18L0.321,0.002L0.333,0.008C0.33,0.008 0.325,0.008 0.319,0.009C0.313,0.01 0.307,0.01 0.3,0.01C0.257,0.01 0.219,0.001 0.187,-0.016C0.155,-0.033 0.13,-0.058 0.113,-0.09C0.096,-0.121 0.087,-0.158 0.087,-0.201L0.087,-0.529C0.087,-0.572 0.096,-0.61 0.113,-0.641C0.13,-0.672 0.155,-0.697 0.187,-0.714C0.219,-0.731 0.257,-0.74 0.3,-0.74C0.344,-0.74 0.382,-0.731 0.413,-0.714C0.445,-0.696 0.47,-0.671 0.487,-0.64C0.504,-0.609 0.513,-0.572 0.513,-0.529L0.513,-0.201C0.513,-0.157 0.504,-0.119 0.485,-0.086C0.466,-0.053 0.44,-0.029 0.405,-0.012L0.522,0.18L0.429,0.18ZM0.3,-0.061C0.341,-0.061 0.374,-0.074 0.398,-0.099C0.422,-0.124 0.434,-0.158 0.434,-0.201L0.434,-0.529C0.434,-0.572 0.422,-0.607 0.398,-0.631C0.374,-0.657 0.341,-0.669 0.3,-0.669C0.259,-0.669 0.227,-0.657 0.203,-0.631C0.178,-0.607 0.166,-0.572 0.166,-0.529L0.166,-0.201C0.166,-0.158 0.178,-0.124 0.203,-0.099C0.227,-0.074 0.259,-0.061 0.3,-0.061Z" style="fill:rgb(149,166,210);fill-rule:nonzero;"/>
        </g>
        <g transform="matrix(20,0,0,20,1049.18,554.6)">
            <path d="M0.299,0.01C0.237,0.01 0.188,-0.009 0.151,-0.046C0.114,-0.083 0.095,-0.134 0.095,-0.198L0.095,-0.55L0.174,-0.55L0.174,-0.198C0.174,-0.155 0.185,-0.121 0.207,-0.097C0.23,-0.072 0.26,-0.06 0.299,-0.06C0.338,-0.06 0.369,-0.072 0.392,-0.097C0.415,-0.121 0.426,-0.155 0.426,-0.198L0.426,-0.55L0.505,-0.55L0.505,-0.198C0.505,-0.134 0.486,-0.083 0.449,-0.046C0.412,-0.009 0.362,0.01 0.299,0.01Z" style="fill:rgb(149,166,210);fill-rule:nonzero;"/>
        </g>
        <g transform="matrix(20,0,0,20,1063.18,554.6)">
            <path d="M0.3,0.01C0.257,0.01 0.22,0.001 0.189,-0.016C0.158,-0.033 0.133,-0.057 0.116,-0.088C0.099,-0.119 0.09,-0.156 0.09,-0.197L0.09,-0.353C0.09,-0.395 0.099,-0.432 0.116,-0.463C0.133,-0.494 0.158,-0.518 0.189,-0.535C0.22,-0.552 0.257,-0.56 0.3,-0.56C0.343,-0.56 0.38,-0.552 0.411,-0.535C0.442,-0.518 0.467,-0.494 0.484,-0.463C0.501,-0.432 0.51,-0.395 0.51,-0.353L0.51,-0.256L0.168,-0.256L0.168,-0.197C0.168,-0.152 0.18,-0.118 0.203,-0.094C0.226,-0.069 0.258,-0.057 0.3,-0.057C0.335,-0.057 0.364,-0.064 0.387,-0.078C0.409,-0.092 0.423,-0.112 0.429,-0.139L0.508,-0.139C0.501,-0.093 0.478,-0.057 0.441,-0.03C0.404,-0.003 0.357,0.01 0.3,0.01ZM0.432,-0.309L0.432,-0.353C0.432,-0.398 0.421,-0.432 0.398,-0.457C0.375,-0.481 0.343,-0.493 0.3,-0.493C0.258,-0.493 0.226,-0.481 0.203,-0.457C0.18,-0.432 0.168,-0.398 0.168,-0.353L0.168,-0.318L0.44,-0.318L0.432,-0.309Z" style="fill:rgb(149,166,210);fill-rule:nonzero;"/>
        </g>
        <g transform="matrix(20,0,0,20,1077.18,554.6)">
            <path d="M0.115,-0L0.115,-0.55L0.193,-0.55L0.193,-0.448L0.212,-0.448L0.184,-0.385C0.185,-0.441 0.198,-0.484 0.225,-0.515C0.252,-0.545 0.29,-0.56 0.34,-0.56C0.398,-0.56 0.444,-0.542 0.478,-0.505C0.513,-0.469 0.53,-0.42 0.53,-0.359L0.53,-0.326L0.449,-0.326L0.449,-0.353C0.449,-0.398 0.438,-0.432 0.416,-0.457C0.394,-0.481 0.363,-0.493 0.322,-0.493C0.283,-0.493 0.252,-0.481 0.229,-0.456C0.206,-0.431 0.195,-0.397 0.195,-0.353L0.195,-0L0.115,-0Z" style="fill:rgb(149,166,210);fill-rule:nonzero;"/>
        </g>
        <g transform="matrix(20,0,0,20,1091.18,554.6)">
            <path d="M0.184,0.18L0.265,-0.035L0.061,-0.55L0.149,-0.55L0.279,-0.207C0.284,-0.194 0.29,-0.179 0.295,-0.163C0.3,-0.146 0.303,-0.133 0.306,-0.122C0.309,-0.133 0.313,-0.146 0.318,-0.163C0.323,-0.18 0.327,-0.195 0.332,-0.208L0.454,-0.55L0.539,-0.55L0.268,0.18L0.184,0.18Z" style="fill:rgb(149,166,210);fill-rule:nonzero;"/>
        </g>
        <g transform="matrix(20,0,0,20,1119.18,554.6)">
            <path d="M0.098,-0L0.098,-0.73L0.299,-0.73C0.364,-0.73 0.416,-0.713 0.453,-0.68C0.49,-0.646 0.509,-0.6 0.509,-0.541C0.509,-0.508 0.502,-0.478 0.489,-0.454C0.475,-0.429 0.456,-0.409 0.431,-0.396C0.406,-0.382 0.375,-0.375 0.34,-0.376L0.34,-0.39C0.378,-0.39 0.411,-0.383 0.439,-0.368C0.466,-0.353 0.488,-0.331 0.503,-0.303C0.518,-0.274 0.526,-0.241 0.526,-0.202C0.526,-0.161 0.517,-0.125 0.5,-0.095C0.483,-0.064 0.458,-0.041 0.426,-0.025C0.394,-0.008 0.356,-0 0.311,-0L0.098,-0ZM0.175,-0.072L0.304,-0.072C0.349,-0.072 0.384,-0.084 0.409,-0.108C0.435,-0.131 0.448,-0.163 0.448,-0.204C0.448,-0.246 0.435,-0.28 0.409,-0.306C0.384,-0.331 0.349,-0.344 0.304,-0.344L0.175,-0.344L0.175,-0.072ZM0.175,-0.413L0.299,-0.413C0.34,-0.413 0.372,-0.424 0.395,-0.446C0.418,-0.468 0.43,-0.498 0.43,-0.536C0.43,-0.574 0.419,-0.604 0.396,-0.625C0.373,-0.647 0.34,-0.658 0.299,-0.658L0.175,-0.658L0.175,-0.413Z" style="fill:rgb(149,166,210);fill-rule:nonzero;"/>
        </g>
        <g transform="matrix(20,0,0,20,1133.18,554.6)">
            <path d="M0.299,0.01C0.237,0.01 0.188,-0.009 0.151,-0.046C0.114,-0.083 0.095,-0.134 0.095,-0.198L0.095,-0.55L0.174,-0.55L0.174,-0.198C0.174,-0.155 0.185,-0.121 0.207,-0.097C0.23,-0.072 0.26,-0.06 0.299,-0.06C0.338,-0.06 0.369,-0.072 0.392,-0.097C0.415,-0.121 0.426,-0.155 0.426,-0.198L0.426,-0.55L0.505,-0.55L0.505,-0.198C0.505,-0.134 0.486,-0.083 0.449,-0.046C0.412,-0.009 0.362,0.01 0.299,0.01Z" style="fill:rgb(149,166,210);fill-rule:nonzero;"/>
        </g>
        <g transform="matrix(20,0,0,20,1147.18,554.6)">
            <path d="M0.088,-0L0.088,-0.072L0.284,-0.072L0.284,-0.478L0.113,-0.478L0.113,-0.55L0.364,-0.55L0.364,-0.072L0.55,-0.072L0.55,-0L0.088,-0ZM0.315,-0.651C0.294,-0.651 0.278,-0.656 0.266,-0.667C0.253,-0.678 0.247,-0.692 0.247,-0.711C0.247,-0.73 0.253,-0.746 0.266,-0.757C0.278,-0.768 0.294,-0.774 0.315,-0.774C0.336,-0.774 0.352,-0.768 0.365,-0.757C0.377,-0.746 0.383,-0.73 0.383,-0.711C0.383,-0.693 0.377,-0.679 0.365,-0.668C0.352,-0.657 0.336,-0.651 0.315,-0.651Z" style="fill:rgb(149,166,210);fill-rule:nonzero;"/>
        </g>
        <g transform="matrix(20,0,0,20,1161.18,554.6)">
            <path d="M0.372,-0C0.341,-0 0.314,-0.006 0.291,-0.018C0.268,-0.03 0.25,-0.047 0.237,-0.07C0.224,-0.093 0.218,-0.119 0.218,-0.15L0.218,-0.658L0.035,-0.658L0.035,-0.73L0.297,-0.73L0.297,-0.15C0.297,-0.125 0.304,-0.106 0.317,-0.093C0.33,-0.079 0.349,-0.072 0.372,-0.072L0.547,-0.072L0.547,-0L0.372,-0Z" style="fill:rgb(149,166,210);fill-rule:nonzero;"/>
        </g>
        <g transform="matrix(20,0,0,20,1175.18,554.6)">
            <path d="M0.273,0.01C0.218,0.01 0.174,-0.008 0.141,-0.045C0.107,-0.082 0.09,-0.131 0.09,-0.193L0.09,-0.356C0.09,-0.419 0.107,-0.468 0.14,-0.505C0.173,-0.542 0.218,-0.56 0.273,-0.56C0.319,-0.56 0.356,-0.547 0.385,-0.522C0.413,-0.497 0.427,-0.463 0.427,-0.42L0.406,-0.453L0.425,-0.453L0.424,-0.573L0.424,-0.73L0.503,-0.73L0.503,-0L0.424,-0L0.424,-0.097L0.403,-0.097L0.427,-0.13C0.427,-0.087 0.413,-0.053 0.385,-0.028C0.356,-0.003 0.319,0.01 0.273,0.01ZM0.298,-0.059C0.337,-0.059 0.368,-0.071 0.391,-0.096C0.413,-0.12 0.424,-0.154 0.424,-0.197L0.424,-0.353C0.424,-0.396 0.413,-0.43 0.391,-0.455C0.368,-0.479 0.337,-0.491 0.298,-0.491C0.258,-0.491 0.227,-0.479 0.204,-0.455C0.181,-0.431 0.17,-0.397 0.17,-0.353L0.17,-0.197C0.17,-0.153 0.181,-0.119 0.204,-0.095C0.227,-0.071 0.258,-0.059 0.298,-0.059Z" style="fill:rgb(149,166,210);fill-rule:nonzero;"/>
        </g>
        <g transform="matrix(20,0,0,20,1189.18,554.6)">
            <path d="M0.3,0.01C0.257,0.01 0.22,0.001 0.189,-0.016C0.158,-0.033 0.133,-0.057 0.116,-0.088C0.099,-0.119 0.09,-0.156 0.09,-0.197L0.09,-0.353C0.09,-0.395 0.099,-0.432 0.116,-0.463C0.133,-0.494 0.158,-0.518 0.189,-0.535C0.22,-0.552 0.257,-0.56 0.3,-0.56C0.343,-0.56 0.38,-0.552 0.411,-0.535C0.442,-0.518 0.467,-0.494 0.484,-0.463C0.501,-0.432 0.51,-0.395 0.51,-0.353L0.51,-0.256L0.168,-0.256L0.168,-0.197C0.168,-0.152 0.18,-0.118 0.203,-0.094C0.226,-0.069 0.258,-0.057 0.3,-0.057C0.335,-0.057 0.364,-0.064 0.387,-0.078C0.409,-0.092 0.423,-0.112 0.429,-0.139L0.508,-0.139C0.501,-0.093 0.478,-0.057 0.441,-0.03C0.404,-0.003 0.357,0.01 0.3,0.01ZM0.432,-0.309L0.432,-0.353C0.432,-0.398 0.421,-0.432 0.398,-0.457C0.375,-0.481 0.343,-0.493 0.3,-0.493C0.258,-0.493 0.226,-0.481 0.203,-0.457C0.18,-0.432 0.168,-0.398 0.168,-0.353L0.168,-0.318L0.44,-0.318L0.432,-0.309Z" style="fill:rgb(149,166,210);fill-rule:nonzero;"/>
        </g>
        <g transform="matrix(20,0,0,20,1203.18,554.6)">
            <path d="M0.115,-0L0.115,-0.55L0.193,-0.55L0.193,-0.448L0.212,-0.448L0.184,-0.385C0.185,-0.441 0.198,-0.484 0.225,-0.515C0.252,-0.545 0.29,-0.56 0.34,-0.56C0.398,-0.56 0.444,-0.542 0.478,-0.505C0.513,-0.469 0.53,-0.42 0.53,-0.359L0.53,-0.326L0.449,-0.326L0.449,-0.353C0.449,-0.398 0.438,-0.432 0.416,-0.457C0.394,-0.481 0.363,-0.493 0.322,-0.493C0.283,-0.493 0.252,-0.481 0.229,-0.456C0.206,-0.431 0.195,-0.397 0.195,-0.353L0.195,-0L0.115,-0Z" style="fill:rgb(149,166,210);fill-rule:nonzero;"/>
        </g>
    </g>
    <g transform="matrix(1.47131,0,0,1.47131,-1022.79,-603.307)">
        <path d="M878.765,498.431C875.414,499.419 871.867,499.948 868.197,499.948C847.563,499.948 830.811,483.196 830.811,462.562C830.811,441.927 847.563,425.175 868.197,425.175C888.832,425.175 905.584,441.927 905.584,462.562C905.584,466.231 905.054,469.778 904.067,473.129C904.255,471.782 904.351,470.406 904.351,469.007C904.351,452.611 891.04,439.299 874.643,439.299C858.247,439.299 844.935,452.611 844.935,469.007C844.935,485.404 858.247,498.716 874.643,498.716C876.042,498.716 877.418,498.619 878.765,498.431Z" style="fill:url(#_Linear1);"/>
    </g>
    <g transform="matrix(0.911431,0,0,0.911431,-521.891,-329.513)">
        <circle cx="868.197" cy="462.562" r="37.387" style="fill:url(#_Linear2);"/>
    </g>
    <defs>
        <linearGradient id="_Linear1" x1="0" y1="0" x2="1" y2="0" gradientUnits="userSpaceOnUse" gradientTransform="matrix(53.5989,50.9629,-50.9629,53.5989,841.663,436.622)"><stop offset="0" style="stop-color:rgb(255,120,143);stop-opacity:1"/><stop offset="1" style="stop-color:rgb(199,33,233);stop-opacity:1"/></linearGradient>
        <linearGradient id="_Linear2" x1="0" y1="0" x2="1" y2="0" gradientUnits="userSpaceOnUse" gradientTransform="matrix(51.7433,51.7433,-51.7433,51.7433,843.629,436.07)"><stop offset="0" style="stop-color:rgb(80,209,243);stop-opacity:1"/><stop offset="1" style="stop-color:rgb(121,93,255);stop-opacity:1"/></linearGradient>
    </defs>
</svg>
