<?xml version="1.0" encoding="UTF-8" standalone="no"?>
<!DOCTYPE svg PUBLIC "-//W3C//DTD SVG 1.1//EN" "http://www.w3.org/Graphics/SVG/1.1/DTD/svg11.dtd">
<svg width="100%" height="100%" viewBox="0 0 312 100" version="1.1" xmlns="http://www.w3.org/2000/svg" xmlns:xlink="http://www.w3.org/1999/xlink" xml:space="preserve" xmlns:serif="http://www.serif.com/" style="fill-rule:evenodd;clip-rule:evenodd;stroke-linejoin:round;stroke-miterlimit:2;">
    <g transform="matrix(1,0,0,1,-695.384,-509.922)">
        <g transform="matrix(52,0,0,52,802.742,577.96)">
            <path d="M0.305,0.01C0.256,0.01 0.213,0.001 0.176,-0.018C0.139,-0.036 0.111,-0.062 0.091,-0.095C0.07,-0.128 0.06,-0.166 0.06,-0.21L0.06,-0.52C0.06,-0.565 0.07,-0.603 0.091,-0.636C0.111,-0.669 0.139,-0.694 0.176,-0.713C0.213,-0.731 0.256,-0.74 0.305,-0.74C0.354,-0.74 0.396,-0.731 0.433,-0.713C0.469,-0.694 0.497,-0.669 0.518,-0.636C0.538,-0.603 0.548,-0.565 0.548,-0.52L0.398,-0.52C0.398,-0.549 0.39,-0.572 0.374,-0.587C0.357,-0.602 0.334,-0.61 0.304,-0.61C0.274,-0.61 0.251,-0.602 0.234,-0.587C0.218,-0.572 0.21,-0.549 0.21,-0.52L0.21,-0.21C0.21,-0.181 0.218,-0.159 0.234,-0.143C0.251,-0.128 0.274,-0.12 0.304,-0.12C0.334,-0.12 0.357,-0.128 0.374,-0.143C0.39,-0.159 0.398,-0.181 0.398,-0.21L0.548,-0.21C0.548,-0.166 0.538,-0.128 0.518,-0.095C0.497,-0.062 0.469,-0.036 0.433,-0.018C0.396,0.001 0.354,0.01 0.305,0.01Z" style="fill:rgb(94,110,157);fill-rule:nonzero;"/>
        </g>
        <g transform="matrix(52,0,0,52,843.302,577.96)">
            <path d="M0.08,-0L0.08,-0.13L0.225,-0.13L0.225,-0.6L0.08,-0.6L0.08,-0.73L0.52,-0.73L0.52,-0.6L0.375,-0.6L0.375,-0.13L0.52,-0.13L0.52,-0L0.08,-0Z" style="fill:rgb(94,110,157);fill-rule:nonzero;"/>
        </g>
        <g transform="matrix(52,0,0,52,883.862,577.96)">
            <path d="M0.065,-0L0.065,-0.73L0.3,-0.73C0.352,-0.73 0.397,-0.721 0.435,-0.703C0.473,-0.685 0.502,-0.659 0.524,-0.626C0.545,-0.593 0.555,-0.553 0.555,-0.508C0.555,-0.461 0.544,-0.418 0.521,-0.381C0.498,-0.344 0.466,-0.317 0.427,-0.3L0.565,-0L0.402,-0L0.284,-0.276L0.214,-0.276L0.214,-0L0.065,-0ZM0.214,-0.406L0.3,-0.406C0.333,-0.406 0.359,-0.414 0.378,-0.431C0.396,-0.448 0.405,-0.471 0.405,-0.501C0.405,-0.532 0.396,-0.557 0.378,-0.574C0.359,-0.591 0.333,-0.6 0.3,-0.6L0.214,-0.6L0.214,-0.406Z" style="fill:rgb(94,110,157);fill-rule:nonzero;"/>
        </g>
        <g transform="matrix(52,0,0,52,924.422,577.96)">
            <path d="M0.4,0.18L0.288,-0.004L0.319,0.009C0.316,0.009 0.303,0.01 0.3,0.01C0.252,0.01 0.21,0.001 0.174,-0.018C0.138,-0.036 0.11,-0.062 0.09,-0.095C0.07,-0.128 0.06,-0.167 0.06,-0.21L0.06,-0.52C0.06,-0.565 0.07,-0.603 0.09,-0.636C0.11,-0.669 0.138,-0.694 0.174,-0.713C0.21,-0.731 0.252,-0.74 0.3,-0.74C0.348,-0.74 0.39,-0.731 0.426,-0.713C0.462,-0.694 0.49,-0.669 0.51,-0.635C0.53,-0.603 0.54,-0.564 0.54,-0.52L0.54,-0.21C0.54,-0.167 0.531,-0.129 0.513,-0.096C0.494,-0.063 0.468,-0.037 0.433,-0.02L0.556,0.18L0.4,0.18ZM0.3,-0.121C0.331,-0.121 0.354,-0.129 0.369,-0.144C0.383,-0.159 0.39,-0.181 0.39,-0.21L0.39,-0.52C0.39,-0.549 0.382,-0.572 0.367,-0.587C0.352,-0.602 0.329,-0.61 0.3,-0.61C0.271,-0.61 0.249,-0.602 0.234,-0.587C0.218,-0.572 0.21,-0.549 0.21,-0.52L0.21,-0.21C0.21,-0.181 0.217,-0.159 0.232,-0.144C0.247,-0.129 0.269,-0.121 0.3,-0.121Z" style="fill:rgb(222,18,180);fill-rule:nonzero;"/>
        </g>
        <g transform="matrix(52,0,0,52,964.982,577.96)">
            <path d="M0.095,-0L0.095,-0.73L0.245,-0.73L0.245,-0.14L0.54,-0.14L0.54,-0L0.095,-0Z" style="fill:rgb(222,18,180);fill-rule:nonzero;"/>
        </g>
    </g>
    <g transform="matrix(0.90061,0,0,0.90061,-738.989,-366.912)">
        <path d="M878.765,498.431C875.414,499.419 871.867,499.948 868.197,499.948C847.563,499.948 830.811,483.196 830.811,462.562C830.811,441.927 847.563,425.175 868.197,425.175C888.832,425.175 905.584,441.927 905.584,462.562C905.584,466.231 905.054,469.778 904.067,473.129C904.255,471.782 904.351,470.406 904.351,469.007C904.351,452.611 891.04,439.299 874.643,439.299C858.247,439.299 844.935,452.611 844.935,469.007C844.935,485.404 858.247,498.716 874.643,498.716C876.042,498.716 877.418,498.619 878.765,498.431Z" style="fill:url(#_Linear1);"/>
    </g>
    <g transform="matrix(0.5579,0,0,0.5579,-432.381,-199.319)">
        <circle cx="868.197" cy="462.562" r="37.387" style="fill:url(#_Linear2);"/>
    </g>
    <defs>
        <linearGradient id="_Linear1" x1="0" y1="0" x2="1" y2="0" gradientUnits="userSpaceOnUse" gradientTransform="matrix(53.5989,50.9629,-50.9629,53.5989,841.663,436.622)"><stop offset="0" style="stop-color:rgb(255,120,143);stop-opacity:1"/><stop offset="1" style="stop-color:rgb(199,33,233);stop-opacity:1"/></linearGradient>
        <linearGradient id="_Linear2" x1="0" y1="0" x2="1" y2="0" gradientUnits="userSpaceOnUse" gradientTransform="matrix(51.7433,51.7433,-51.7433,51.7433,843.629,436.07)"><stop offset="0" style="stop-color:rgb(80,209,243);stop-opacity:1"/><stop offset="1" style="stop-color:rgb(121,93,255);stop-opacity:1"/></linearGradient>
    </defs>
</svg>
