<?xml version="1.0" encoding="UTF-8" standalone="no"?>
<!DOCTYPE svg PUBLIC "-//W3C//DTD SVG 1.1//EN" "http://www.w3.org/Graphics/SVG/1.1/DTD/svg11.dtd">
<svg width="100%" height="100%" viewBox="0 0 1434 1024" version="1.1" xmlns="http://www.w3.org/2000/svg" xmlns:xlink="http://www.w3.org/1999/xlink" xml:space="preserve" xmlns:serif="http://www.serif.com/" style="fill-rule:evenodd;clip-rule:evenodd;stroke-linejoin:round;stroke-miterlimit:2;">
    <rect x="0" y="0" width="1433.6" height="1024" style="fill:rgb(19,17,26);"/>
    <g transform="matrix(0.703954,0,0,0.703954,356.841,162.871)">
        <g transform="matrix(1.92654,1.92654,-1.03328,1.03328,124.041,-951.157)">
            <path d="M491.289,256.34L469.56,256.34C469.56,256.34 470.904,839.079 471.095,921.631C471.107,926.983 473.438,931.31 476.308,931.31C478.878,931.31 481.971,931.31 484.54,931.31C487.411,931.31 489.742,926.983 489.754,921.631C489.945,839.079 491.289,256.34 491.289,256.34Z" style="fill:url(#_Linear1);"/>
            <clipPath id="_clip2">
                <path d="M491.289,256.34L469.56,256.34C469.56,256.34 470.904,839.079 471.095,921.631C471.107,926.983 473.438,931.31 476.308,931.31C478.878,931.31 481.971,931.31 484.54,931.31C487.411,931.31 489.742,926.983 489.754,921.631C489.945,839.079 491.289,256.34 491.289,256.34Z"/>
            </clipPath>
            <g clip-path="url(#_clip2)">
                <g transform="matrix(0.456304,5.63218e-17,-1.6184e-17,1.61162,259.346,-63.9073)">
                    <rect x="460.688" y="234.509" width="47.621" height="6.757" style="fill-opacity:0.17;"/>
                </g>
                <g transform="matrix(0.257347,6.00865e-17,3.89218e-17,0.740734,379.944,170.811)">
                    <rect x="347.958" y="482.642" width="85.55" height="29.358" style="fill-opacity:0.17;"/>
                </g>
            </g>
        </g>
        <g transform="matrix(1.40112,1.40112,-1.10936,1.10936,399.144,-728.299)">
            <path d="M506.693,234.737L459.072,234.737L459.072,303.151C459.072,308.152 462.282,312.206 466.241,312.206C475.227,312.206 490.538,312.206 499.524,312.206C503.483,312.206 506.693,308.152 506.693,303.151C506.693,282.707 506.693,234.737 506.693,234.737Z" style="fill:url(#_Linear3);"/>
            <clipPath id="_clip4">
                <path d="M506.693,234.737L459.072,234.737L459.072,303.151C459.072,308.152 462.282,312.206 466.241,312.206C475.227,312.206 490.538,312.206 499.524,312.206C503.483,312.206 506.693,308.152 506.693,303.151C506.693,282.707 506.693,234.737 506.693,234.737Z"/>
            </clipPath>
            <g clip-path="url(#_clip4)">
                <g transform="matrix(1,-3.69779e-32,6.34042e-17,1.39383,-1.61618,-92.1293)">
                    <rect x="460.688" y="234.509" width="47.621" height="6.757" style="fill-opacity:0.07;"/>
                </g>
                <g transform="matrix(1,-2.67448e-17,3.3889e-17,0.977746,-1.61618,48.0906)">
                    <rect x="460.688" y="234.509" width="47.621" height="6.757" style="fill:white;fill-opacity:0.14;"/>
                </g>
                <g transform="matrix(1,-2.67448e-17,3.3889e-17,0.977746,-1.61618,33.6646)">
                    <rect x="460.688" y="234.509" width="47.621" height="6.757" style="fill:white;fill-opacity:0.14;"/>
                </g>
            </g>
        </g>
        <g transform="matrix(1.40112,1.40112,-1.40112,1.40112,417.656,-751.339)">
            <path d="M531.613,143.627C531.613,124.959 516.456,109.802 497.787,109.802L471.21,109.802C452.541,109.802 437.385,124.959 437.385,143.627L437.385,169.936L531.613,169.936L531.613,143.627Z" style="fill:url(#_Linear5);"/>
        </g>
        <g transform="matrix(1.54784,1.54784,0.634234,-0.634234,-28.8016,-400.161)">
            <path d="M512,227.343L426.704,227.343L439.498,185.476L499.206,185.476L512,227.343Z" style="fill:url(#_Linear6);"/>
            <clipPath id="_clip7">
                <path d="M512,227.343L426.704,227.343L439.498,185.476L499.206,185.476L512,227.343Z"/>
            </clipPath>
            <g clip-path="url(#_clip7)">
                <g transform="matrix(1.79116,3.15976e-16,-1.76228e-16,-2.43799,-398.463,799.073)">
                    <rect x="460.688" y="234.509" width="47.621" height="6.757" style="fill-opacity:0.07;"/>
                </g>
            </g>
        </g>
        <g transform="matrix(0.895216,0.895216,-0.895216,0.895216,538.112,-443.868)">
            <path d="M493.577,161.518L513.632,141.463L513.632,130.144L501.428,117.94L513.632,105.736L513.632,62.837L524.952,62.837L524.952,105.736L537.156,117.94L524.952,130.144L524.952,141.463L545.007,161.518L593.031,161.518L593.031,179.981L445.553,179.981L445.553,161.518L493.577,161.518Z" style="fill:url(#_Linear8);"/>
        </g>
    </g>
    <g transform="matrix(-0.703954,0,0,0.703954,1094.06,162.871)">
        <g transform="matrix(1.92654,1.92654,-1.03328,1.03328,124.041,-951.157)">
            <path d="M491.289,256.34L469.56,256.34C469.56,256.34 470.904,839.079 471.095,921.631C471.107,926.983 473.438,931.31 476.308,931.31C478.878,931.31 481.971,931.31 484.54,931.31C487.411,931.31 489.742,926.983 489.754,921.631C489.945,839.079 491.289,256.34 491.289,256.34Z" style="fill:url(#_Linear9);"/>
            <clipPath id="_clip10">
                <path d="M491.289,256.34L469.56,256.34C469.56,256.34 470.904,839.079 471.095,921.631C471.107,926.983 473.438,931.31 476.308,931.31C478.878,931.31 481.971,931.31 484.54,931.31C487.411,931.31 489.742,926.983 489.754,921.631C489.945,839.079 491.289,256.34 491.289,256.34Z"/>
            </clipPath>
            <g clip-path="url(#_clip10)">
                <g transform="matrix(0.456304,5.63218e-17,-1.6184e-17,1.61162,259.346,-63.9073)">
                    <rect x="460.688" y="234.509" width="47.621" height="6.757" style="fill-opacity:0.17;"/>
                </g>
            </g>
        </g>
        <g transform="matrix(1.40112,1.40112,-1.10936,1.10936,399.144,-728.299)">
            <path d="M506.693,234.737L459.072,234.737L459.072,303.151C459.072,308.152 462.282,312.206 466.241,312.206C475.227,312.206 490.538,312.206 499.524,312.206C503.483,312.206 506.693,308.152 506.693,303.151C506.693,282.707 506.693,234.737 506.693,234.737Z" style="fill:url(#_Linear11);"/>
            <clipPath id="_clip12">
                <path d="M506.693,234.737L459.072,234.737L459.072,303.151C459.072,308.152 462.282,312.206 466.241,312.206C475.227,312.206 490.538,312.206 499.524,312.206C503.483,312.206 506.693,308.152 506.693,303.151C506.693,282.707 506.693,234.737 506.693,234.737Z"/>
            </clipPath>
            <g clip-path="url(#_clip12)">
                <g transform="matrix(1,-3.69779e-32,6.34042e-17,1.39383,-1.61618,-92.1293)">
                    <rect x="460.688" y="234.509" width="47.621" height="6.757" style="fill-opacity:0.07;"/>
                </g>
                <g transform="matrix(1,-2.67448e-17,3.3889e-17,0.977746,-1.61618,48.0906)">
                    <rect x="460.688" y="234.509" width="47.621" height="6.757" style="fill:white;fill-opacity:0.14;"/>
                </g>
                <g transform="matrix(1,-2.67448e-17,3.3889e-17,0.977746,-1.61618,33.6646)">
                    <rect x="460.688" y="234.509" width="47.621" height="6.757" style="fill:white;fill-opacity:0.14;"/>
                </g>
            </g>
        </g>
        <g transform="matrix(1.40112,1.40112,-1.40112,1.40112,417.656,-751.339)">
            <path d="M531.613,143.627C531.613,124.959 516.456,109.802 497.787,109.802L471.21,109.802C452.541,109.802 437.385,124.959 437.385,143.627L437.385,169.936L531.613,169.936L531.613,143.627Z" style="fill:url(#_Linear13);"/>
        </g>
        <g transform="matrix(1.54784,1.54784,0.634234,-0.634234,-28.8016,-400.161)">
            <path d="M512,227.343L426.704,227.343L439.498,185.476L499.206,185.476L512,227.343Z" style="fill:url(#_Linear14);"/>
            <clipPath id="_clip15">
                <path d="M512,227.343L426.704,227.343L439.498,185.476L499.206,185.476L512,227.343Z"/>
            </clipPath>
            <g clip-path="url(#_clip15)">
                <g transform="matrix(1.79116,3.15976e-16,-1.76228e-16,-2.43799,-398.463,799.073)">
                    <rect x="460.688" y="234.509" width="47.621" height="6.757" style="fill-opacity:0.07;"/>
                </g>
            </g>
        </g>
        <g transform="matrix(0.895216,0.895216,-0.895216,0.895216,538.112,-443.868)">
            <path d="M493.577,161.518L513.632,141.463L513.632,130.144L501.428,117.94L513.632,105.736L513.632,62.837L524.952,62.837L524.952,105.736L537.156,117.94L524.952,130.144L524.952,141.463L545.007,161.518L593.031,161.518L593.031,179.981L445.553,179.981L445.553,161.518L493.577,161.518Z" style="fill:url(#_Linear16);"/>
        </g>
    </g>
    <g transform="matrix(0.703954,0,0,0.703954,188.876,188.542)">
        <g>
            <g transform="matrix(1.14683,0,0,1.14683,9,88.8062)">
                <g transform="matrix(220,0,0,220,18.2541,488.658)">
                    <path d="M-0.016,-0.259C-0.016,-0.259 0.073,-0.285 0.073,-0.285C0.083,-0.256 0.098,-0.227 0.12,-0.205C0.143,-0.183 0.173,-0.171 0.203,-0.165C0.241,-0.157 0.28,-0.158 0.317,-0.165C0.35,-0.171 0.382,-0.181 0.411,-0.198C0.433,-0.211 0.453,-0.229 0.465,-0.253C0.475,-0.272 0.479,-0.295 0.475,-0.317C0.472,-0.338 0.462,-0.357 0.445,-0.371C0.425,-0.389 0.398,-0.397 0.372,-0.401C0.328,-0.409 0.281,-0.41 0.236,-0.412C0.186,-0.413 0.134,-0.414 0.086,-0.428C0.053,-0.437 0.019,-0.453 -0.006,-0.477C-0.028,-0.499 -0.043,-0.529 -0.05,-0.559C-0.057,-0.594 -0.052,-0.632 -0.038,-0.665C-0.022,-0.702 0.008,-0.733 0.042,-0.754C0.082,-0.78 0.128,-0.796 0.175,-0.805C0.225,-0.814 0.277,-0.817 0.327,-0.806C0.368,-0.798 0.409,-0.779 0.438,-0.749C0.466,-0.721 0.485,-0.683 0.494,-0.644C0.494,-0.644 0.4,-0.621 0.4,-0.621C0.389,-0.659 0.367,-0.695 0.331,-0.713C0.29,-0.735 0.238,-0.732 0.194,-0.723C0.151,-0.715 0.1,-0.701 0.07,-0.667C0.049,-0.645 0.037,-0.615 0.044,-0.585C0.048,-0.56 0.063,-0.54 0.085,-0.528C0.128,-0.504 0.194,-0.508 0.242,-0.506C0.298,-0.505 0.358,-0.504 0.413,-0.491C0.452,-0.481 0.491,-0.464 0.52,-0.435C0.545,-0.41 0.561,-0.375 0.567,-0.34C0.573,-0.302 0.567,-0.263 0.551,-0.228C0.534,-0.19 0.504,-0.158 0.47,-0.135C0.431,-0.108 0.384,-0.091 0.337,-0.082C0.283,-0.072 0.225,-0.067 0.17,-0.079C0.125,-0.088 0.082,-0.109 0.05,-0.141C0.017,-0.173 -0.006,-0.215 -0.016,-0.259Z" style="fill:rgb(49,6,22);fill-rule:nonzero;"/>
                </g>
                <g transform="matrix(220,0,0,220,202.392,488.658)">
                    <path d="M0.55,-0.498C0.55,-0.498 0.65,-0.484 0.65,-0.484C0.638,-0.414 0.61,-0.346 0.558,-0.296C0.508,-0.248 0.442,-0.222 0.374,-0.214C0.309,-0.207 0.24,-0.209 0.179,-0.237C0.124,-0.263 0.081,-0.306 0.049,-0.357C0.015,-0.413 -0.007,-0.477 -0.016,-0.542C-0.026,-0.608 -0.023,-0.678 0.001,-0.741C0.022,-0.799 0.061,-0.849 0.111,-0.884C0.164,-0.92 0.227,-0.942 0.29,-0.95C0.357,-0.957 0.427,-0.95 0.487,-0.916C0.544,-0.885 0.585,-0.833 0.61,-0.774C0.61,-0.774 0.514,-0.742 0.514,-0.742C0.496,-0.784 0.467,-0.825 0.427,-0.848C0.388,-0.869 0.341,-0.874 0.297,-0.869C0.247,-0.863 0.195,-0.846 0.157,-0.812C0.123,-0.782 0.098,-0.74 0.089,-0.696C0.079,-0.65 0.078,-0.603 0.084,-0.557C0.091,-0.503 0.106,-0.449 0.133,-0.402C0.155,-0.363 0.189,-0.33 0.23,-0.312C0.27,-0.295 0.314,-0.289 0.357,-0.294C0.406,-0.3 0.453,-0.319 0.488,-0.355C0.526,-0.393 0.544,-0.446 0.55,-0.498Z" style="fill:rgb(49,6,22);fill-rule:nonzero;"/>
                </g>
                <g transform="matrix(220,0,0,220,398.669,488.658)">
                    <path d="M0.07,-0.282C0.053,-0.52 0.036,-0.758 0.019,-0.996C0.202,-1.009 0.386,-1.019 0.57,-1.024C0.57,-1.024 0.572,-0.94 0.572,-0.94C0.572,-0.94 0.125,-0.918 0.125,-0.918C0.125,-0.918 0.139,-0.7 0.139,-0.7C0.139,-0.7 0.551,-0.72 0.551,-0.72C0.551,-0.72 0.554,-0.636 0.554,-0.636C0.554,-0.636 0.144,-0.616 0.144,-0.616C0.144,-0.616 0.16,-0.373 0.16,-0.373C0.16,-0.373 0.607,-0.394 0.607,-0.394C0.607,-0.394 0.609,-0.309 0.609,-0.309C0.429,-0.304 0.249,-0.295 0.07,-0.282Z" style="fill:rgb(49,6,22);fill-rule:nonzero;"/>
                </g>
                <g transform="matrix(220,0,0,220,582.808,488.658)">
                    <path d="M0.076,-0.315C0.074,-0.554 0.073,-0.792 0.071,-1.031C0.071,-1.031 0.358,-1.03 0.358,-1.03C0.397,-1.03 0.437,-1.029 0.474,-1.021C0.507,-1.016 0.54,-1.005 0.567,-0.986C0.593,-0.968 0.613,-0.943 0.626,-0.915C0.641,-0.884 0.647,-0.85 0.646,-0.816C0.644,-0.758 0.621,-0.705 0.58,-0.664C0.525,-0.609 0.434,-0.604 0.361,-0.605C0.361,-0.605 0.172,-0.607 0.172,-0.607C0.172,-0.607 0.172,-0.316 0.172,-0.316C0.172,-0.316 0.076,-0.315 0.076,-0.315ZM0.172,-0.691C0.172,-0.691 0.364,-0.69 0.364,-0.69C0.409,-0.689 0.464,-0.692 0.5,-0.721C0.529,-0.744 0.542,-0.781 0.543,-0.816C0.544,-0.844 0.537,-0.871 0.521,-0.894C0.506,-0.915 0.484,-0.931 0.459,-0.938C0.43,-0.946 0.396,-0.945 0.366,-0.946C0.366,-0.946 0.172,-0.947 0.172,-0.947C0.172,-0.947 0.172,-0.691 0.172,-0.691Z" style="fill:rgb(49,6,22);fill-rule:nonzero;"/>
                </g>
                <g transform="matrix(220,0,0,220,766.946,488.658)">
                    <path d="M0.268,-0.283C0.283,-0.493 0.298,-0.702 0.313,-0.912C0.313,-0.912 0.064,-0.928 0.064,-0.928C0.064,-0.928 0.068,-1.012 0.068,-1.012C0.269,-1.002 0.471,-0.987 0.671,-0.967C0.671,-0.967 0.663,-0.883 0.663,-0.883C0.663,-0.883 0.413,-0.905 0.413,-0.905C0.397,-0.695 0.38,-0.485 0.364,-0.276C0.364,-0.276 0.268,-0.283 0.268,-0.283Z" style="fill:rgb(49,6,22);fill-rule:nonzero;"/>
                </g>
                <g transform="matrix(220,0,0,220,938.731,488.658)">
                    <path d="M0.092,-0.226C0.12,-0.463 0.148,-0.7 0.176,-0.937C0.176,-0.937 0.512,-0.893 0.512,-0.893C0.562,-0.886 0.617,-0.876 0.662,-0.851C0.695,-0.833 0.721,-0.804 0.736,-0.771C0.751,-0.736 0.756,-0.697 0.749,-0.659C0.742,-0.611 0.717,-0.569 0.678,-0.541C0.631,-0.506 0.568,-0.498 0.511,-0.499C0.53,-0.487 0.55,-0.472 0.565,-0.455C0.591,-0.423 0.613,-0.386 0.63,-0.348C0.63,-0.348 0.725,-0.136 0.725,-0.136C0.725,-0.136 0.605,-0.155 0.605,-0.155C0.605,-0.155 0.533,-0.317 0.533,-0.317C0.516,-0.354 0.498,-0.39 0.477,-0.425C0.466,-0.444 0.452,-0.465 0.435,-0.479C0.423,-0.489 0.408,-0.499 0.393,-0.504C0.376,-0.51 0.357,-0.513 0.34,-0.515C0.34,-0.515 0.227,-0.53 0.227,-0.53C0.227,-0.53 0.187,-0.214 0.187,-0.214C0.187,-0.214 0.092,-0.226 0.092,-0.226ZM0.237,-0.611C0.237,-0.611 0.447,-0.583 0.447,-0.583C0.482,-0.578 0.519,-0.574 0.554,-0.581C0.578,-0.586 0.601,-0.597 0.618,-0.615C0.634,-0.632 0.644,-0.653 0.648,-0.675C0.653,-0.707 0.643,-0.74 0.622,-0.764C0.594,-0.796 0.545,-0.808 0.504,-0.814C0.504,-0.814 0.266,-0.846 0.266,-0.846C0.266,-0.846 0.237,-0.611 0.237,-0.611Z" style="fill:rgb(49,6,22);fill-rule:nonzero;"/>
                </g>
                <g transform="matrix(220,0,0,220,1135.01,488.658)">
                    <path d="M0.094,-0.089C0.138,-0.324 0.182,-0.558 0.226,-0.793C0.394,-0.761 0.561,-0.715 0.73,-0.69C0.73,-0.69 0.712,-0.608 0.712,-0.608C0.712,-0.608 0.309,-0.691 0.309,-0.691C0.309,-0.691 0.267,-0.476 0.267,-0.476C0.267,-0.476 0.65,-0.396 0.65,-0.396C0.65,-0.396 0.632,-0.314 0.632,-0.314C0.632,-0.314 0.251,-0.393 0.251,-0.393C0.251,-0.393 0.205,-0.154 0.205,-0.154C0.205,-0.154 0.606,-0.072 0.606,-0.072C0.606,-0.072 0.589,0.011 0.589,0.011C0.423,-0.012 0.259,-0.058 0.094,-0.089Z" style="fill:rgb(49,6,22);fill-rule:nonzero;"/>
                </g>
            </g>
            <g transform="matrix(1.14683,0,0,1.14683,0,79.8062)">
                <g transform="matrix(220,0,0,220,18.2541,488.658)">
                    <path d="M-0.024,-0.25C-0.024,-0.25 0.065,-0.277 0.065,-0.277C0.075,-0.248 0.09,-0.219 0.113,-0.197C0.135,-0.175 0.166,-0.163 0.196,-0.157C0.234,-0.149 0.273,-0.15 0.311,-0.157C0.343,-0.164 0.376,-0.174 0.404,-0.191C0.426,-0.204 0.447,-0.222 0.459,-0.246C0.469,-0.266 0.473,-0.288 0.469,-0.31C0.465,-0.331 0.455,-0.35 0.439,-0.364C0.418,-0.382 0.391,-0.39 0.365,-0.394C0.321,-0.402 0.274,-0.402 0.228,-0.404C0.179,-0.406 0.126,-0.407 0.078,-0.42C0.045,-0.429 0.011,-0.444 -0.014,-0.469C-0.036,-0.491 -0.052,-0.52 -0.058,-0.551C-0.066,-0.586 -0.061,-0.624 -0.047,-0.657C-0.031,-0.694 -0.001,-0.724 0.033,-0.746C0.074,-0.772 0.12,-0.785 0.168,-0.793C0.217,-0.802 0.269,-0.809 0.319,-0.799C0.36,-0.791 0.401,-0.772 0.431,-0.742C0.459,-0.714 0.478,-0.676 0.486,-0.637C0.486,-0.637 0.393,-0.614 0.393,-0.614C0.382,-0.652 0.359,-0.687 0.323,-0.706C0.282,-0.727 0.23,-0.724 0.186,-0.716C0.143,-0.708 0.092,-0.693 0.061,-0.659C0.041,-0.637 0.029,-0.607 0.035,-0.577C0.04,-0.552 0.055,-0.532 0.077,-0.52C0.12,-0.496 0.186,-0.5 0.234,-0.499C0.29,-0.498 0.35,-0.497 0.406,-0.484C0.444,-0.475 0.484,-0.457 0.513,-0.429C0.538,-0.403 0.554,-0.369 0.56,-0.333C0.567,-0.296 0.56,-0.256 0.545,-0.222C0.528,-0.183 0.498,-0.151 0.464,-0.128C0.424,-0.101 0.378,-0.084 0.331,-0.075C0.276,-0.064 0.218,-0.06 0.163,-0.071C0.118,-0.08 0.075,-0.101 0.042,-0.133C0.01,-0.165 -0.013,-0.206 -0.024,-0.25Z" style="fill:url(#_Linear17);fill-rule:nonzero;"/>
                </g>
                <g transform="matrix(220,0,0,220,202.392,488.658)">
                    <path d="M0.546,-0.494C0.546,-0.494 0.646,-0.48 0.646,-0.48C0.634,-0.41 0.606,-0.342 0.554,-0.292C0.504,-0.244 0.438,-0.218 0.37,-0.21C0.305,-0.202 0.235,-0.204 0.174,-0.232C0.119,-0.258 0.075,-0.301 0.044,-0.352C0.009,-0.408 -0.013,-0.472 -0.023,-0.536C-0.032,-0.603 -0.03,-0.673 -0.006,-0.736C0.015,-0.794 0.054,-0.843 0.105,-0.879C0.162,-0.919 0.217,-0.925 0.284,-0.932C0.357,-0.941 0.415,-0.949 0.481,-0.912C0.538,-0.881 0.58,-0.829 0.605,-0.77C0.605,-0.77 0.509,-0.738 0.509,-0.738C0.49,-0.78 0.461,-0.821 0.421,-0.843C0.382,-0.865 0.335,-0.869 0.291,-0.864C0.241,-0.858 0.189,-0.841 0.15,-0.807C0.116,-0.777 0.092,-0.735 0.083,-0.691C0.073,-0.645 0.072,-0.597 0.078,-0.551C0.085,-0.498 0.1,-0.444 0.127,-0.397C0.149,-0.358 0.183,-0.325 0.225,-0.307C0.265,-0.29 0.309,-0.284 0.352,-0.289C0.402,-0.295 0.449,-0.315 0.484,-0.351C0.522,-0.389 0.54,-0.442 0.546,-0.494Z" style="fill:url(#_Linear18);fill-rule:nonzero;"/>
                </g>
                <g transform="matrix(220,0,0,220,398.669,488.658)">
                    <path d="M0.067,-0.279C0.049,-0.517 0.032,-0.755 0.014,-0.993C0.198,-1.007 0.382,-1.017 0.566,-1.023C0.566,-1.023 0.569,-0.939 0.569,-0.939C0.569,-0.939 0.12,-0.916 0.12,-0.916C0.12,-0.916 0.135,-0.697 0.135,-0.697C0.135,-0.697 0.548,-0.719 0.548,-0.719C0.548,-0.719 0.552,-0.635 0.552,-0.635C0.552,-0.635 0.141,-0.613 0.141,-0.613C0.141,-0.613 0.157,-0.37 0.157,-0.37C0.157,-0.37 0.605,-0.393 0.605,-0.393C0.605,-0.393 0.608,-0.308 0.608,-0.308C0.427,-0.302 0.247,-0.293 0.067,-0.279Z" style="fill:url(#_Linear19);fill-rule:nonzero;"/>
                </g>
                <g transform="matrix(220,0,0,220,582.808,488.658)">
                    <path d="M0.075,-0.315C0.073,-0.554 0.071,-0.792 0.068,-1.031C0.068,-1.031 0.357,-1.031 0.357,-1.031C0.395,-1.03 0.435,-1.029 0.473,-1.022C0.505,-1.016 0.539,-1.006 0.566,-0.987C0.592,-0.969 0.612,-0.944 0.625,-0.916C0.64,-0.885 0.646,-0.851 0.645,-0.817C0.643,-0.76 0.621,-0.706 0.58,-0.665C0.525,-0.61 0.433,-0.605 0.361,-0.606C0.361,-0.606 0.171,-0.607 0.171,-0.607C0.171,-0.607 0.171,-0.316 0.171,-0.316C0.171,-0.316 0.075,-0.315 0.075,-0.315ZM0.17,-0.691C0.17,-0.691 0.363,-0.69 0.363,-0.69C0.408,-0.69 0.463,-0.693 0.5,-0.722C0.528,-0.745 0.541,-0.782 0.542,-0.817C0.543,-0.845 0.536,-0.872 0.52,-0.895C0.505,-0.916 0.483,-0.931 0.458,-0.938C0.428,-0.946 0.394,-0.946 0.364,-0.946C0.364,-0.946 0.17,-0.947 0.17,-0.947C0.17,-0.947 0.17,-0.691 0.17,-0.691Z" style="fill:url(#_Linear20);fill-rule:nonzero;"/>
                </g>
                <g transform="matrix(220,0,0,220,766.946,488.658)">
                    <path d="M0.271,-0.285C0.285,-0.495 0.299,-0.705 0.313,-0.915C0.313,-0.915 0.063,-0.93 0.063,-0.93C0.063,-0.93 0.068,-1.014 0.068,-1.014C0.27,-1.004 0.471,-0.989 0.672,-0.971C0.672,-0.971 0.665,-0.887 0.665,-0.887C0.665,-0.887 0.414,-0.908 0.414,-0.908C0.398,-0.698 0.382,-0.488 0.366,-0.278C0.366,-0.278 0.271,-0.285 0.271,-0.285Z" style="fill:url(#_Linear21);fill-rule:nonzero;"/>
                </g>
                <g transform="matrix(220,0,0,220,938.731,488.658)">
                    <path d="M0.096,-0.23C0.123,-0.467 0.15,-0.704 0.177,-0.941C0.177,-0.941 0.514,-0.898 0.514,-0.898C0.565,-0.891 0.62,-0.881 0.666,-0.857C0.698,-0.839 0.724,-0.81 0.739,-0.776C0.755,-0.742 0.76,-0.702 0.754,-0.665C0.746,-0.617 0.721,-0.575 0.682,-0.546C0.635,-0.511 0.573,-0.503 0.515,-0.504C0.534,-0.492 0.554,-0.477 0.569,-0.46C0.596,-0.428 0.618,-0.391 0.635,-0.354C0.635,-0.354 0.73,-0.141 0.73,-0.141C0.73,-0.141 0.611,-0.16 0.611,-0.16C0.611,-0.16 0.537,-0.322 0.537,-0.322C0.52,-0.358 0.503,-0.395 0.482,-0.43C0.47,-0.449 0.457,-0.469 0.439,-0.484C0.427,-0.494 0.412,-0.503 0.397,-0.509C0.38,-0.515 0.361,-0.517 0.343,-0.52C0.343,-0.52 0.23,-0.534 0.23,-0.534C0.23,-0.534 0.191,-0.218 0.191,-0.218C0.191,-0.218 0.096,-0.23 0.096,-0.23ZM0.24,-0.615C0.24,-0.615 0.451,-0.588 0.451,-0.588C0.486,-0.583 0.523,-0.579 0.558,-0.586C0.582,-0.591 0.605,-0.602 0.622,-0.62C0.638,-0.637 0.648,-0.658 0.652,-0.681C0.657,-0.712 0.647,-0.745 0.626,-0.769C0.597,-0.801 0.549,-0.813 0.508,-0.819C0.508,-0.819 0.268,-0.85 0.268,-0.85C0.268,-0.85 0.24,-0.615 0.24,-0.615Z" style="fill:url(#_Linear22);fill-rule:nonzero;"/>
                </g>
                <g transform="matrix(220,0,0,220,1135.01,488.658)">
                    <path d="M0.101,-0.095C0.144,-0.33 0.187,-0.565 0.231,-0.799C0.406,-0.767 0.579,-0.724 0.754,-0.693C0.754,-0.693 0.736,-0.61 0.736,-0.61C0.736,-0.61 0.315,-0.698 0.315,-0.698C0.315,-0.698 0.273,-0.482 0.273,-0.482C0.273,-0.482 0.674,-0.399 0.674,-0.399C0.674,-0.399 0.656,-0.317 0.656,-0.317C0.656,-0.317 0.257,-0.4 0.257,-0.4C0.257,-0.4 0.211,-0.161 0.211,-0.161C0.211,-0.161 0.628,-0.074 0.628,-0.074C0.628,-0.074 0.61,0.008 0.61,0.008C0.439,-0.021 0.271,-0.064 0.101,-0.095Z" style="fill:url(#_Linear23);fill-rule:nonzero;"/>
                </g>
            </g>
        </g>
    </g>
    <defs>
        <linearGradient id="_Linear1" x1="0" y1="0" x2="1" y2="0" gradientUnits="userSpaceOnUse" gradientTransform="matrix(21.7294,0,0,674.971,469.56,593.825)"><stop offset="0" style="stop-color:rgb(94,77,96);stop-opacity:1"/><stop offset="1" style="stop-color:rgb(65,59,75);stop-opacity:1"/></linearGradient>
        <linearGradient id="_Linear3" x1="0" y1="0" x2="1" y2="0" gradientUnits="userSpaceOnUse" gradientTransform="matrix(47.6206,0,0,77.4689,459.072,273.471)"><stop offset="0" style="stop-color:rgb(251,181,71);stop-opacity:1"/><stop offset="1" style="stop-color:rgb(252,166,85);stop-opacity:1"/></linearGradient>
        <linearGradient id="_Linear5" x1="0" y1="0" x2="1" y2="0" gradientUnits="userSpaceOnUse" gradientTransform="matrix(94.2278,0,0,60.1336,437.385,139.869)"><stop offset="0" style="stop-color:rgb(245,104,114);stop-opacity:1"/><stop offset="1" style="stop-color:rgb(237,76,42);stop-opacity:1"/></linearGradient>
        <linearGradient id="_Linear6" x1="0" y1="0" x2="1" y2="0" gradientUnits="userSpaceOnUse" gradientTransform="matrix(85.2961,0,0,41.8674,426.704,206.41)"><stop offset="0" style="stop-color:rgb(251,181,71);stop-opacity:1"/><stop offset="1" style="stop-color:rgb(252,166,85);stop-opacity:1"/></linearGradient>
        <linearGradient id="_Linear8" x1="0" y1="0" x2="1" y2="0" gradientUnits="userSpaceOnUse" gradientTransform="matrix(147.478,0,0,117.144,445.553,121.409)"><stop offset="0" style="stop-color:rgb(251,181,71);stop-opacity:1"/><stop offset="1" style="stop-color:rgb(252,166,85);stop-opacity:1"/></linearGradient>
        <linearGradient id="_Linear9" x1="0" y1="0" x2="1" y2="0" gradientUnits="userSpaceOnUse" gradientTransform="matrix(21.7294,0,0,674.971,469.56,593.825)"><stop offset="0" style="stop-color:rgb(65,59,75);stop-opacity:1"/><stop offset="1" style="stop-color:rgb(94,77,96);stop-opacity:1"/></linearGradient>
        <linearGradient id="_Linear11" x1="0" y1="0" x2="1" y2="0" gradientUnits="userSpaceOnUse" gradientTransform="matrix(47.6206,0,0,77.4689,459.072,273.471)"><stop offset="0" style="stop-color:rgb(251,181,71);stop-opacity:1"/><stop offset="1" style="stop-color:rgb(252,166,85);stop-opacity:1"/></linearGradient>
        <linearGradient id="_Linear13" x1="0" y1="0" x2="1" y2="0" gradientUnits="userSpaceOnUse" gradientTransform="matrix(94.2278,0,0,60.1336,437.385,139.869)"><stop offset="0" style="stop-color:rgb(231,119,235);stop-opacity:1"/><stop offset="1" style="stop-color:rgb(149,84,241);stop-opacity:1"/></linearGradient>
        <linearGradient id="_Linear14" x1="0" y1="0" x2="1" y2="0" gradientUnits="userSpaceOnUse" gradientTransform="matrix(85.2961,0,0,41.8674,426.704,206.41)"><stop offset="0" style="stop-color:rgb(251,181,71);stop-opacity:1"/><stop offset="1" style="stop-color:rgb(252,166,85);stop-opacity:1"/></linearGradient>
        <linearGradient id="_Linear16" x1="0" y1="0" x2="1" y2="0" gradientUnits="userSpaceOnUse" gradientTransform="matrix(147.478,0,0,117.144,445.553,121.409)"><stop offset="0" style="stop-color:rgb(251,181,71);stop-opacity:1"/><stop offset="1" style="stop-color:rgb(252,166,85);stop-opacity:1"/></linearGradient>
        <linearGradient id="_Linear17" x1="0" y1="0" x2="1" y2="0" gradientUnits="userSpaceOnUse" gradientTransform="matrix(7.07633e-17,-1.15565,0.251497,1.53998e-17,3.07469,-0.252048)"><stop offset="0" style="stop-color:rgb(243,111,157);stop-opacity:1"/><stop offset="1" style="stop-color:rgb(255,190,73);stop-opacity:1"/></linearGradient>
        <linearGradient id="_Linear18" x1="0" y1="0" x2="1" y2="0" gradientUnits="userSpaceOnUse" gradientTransform="matrix(7.07633e-17,-1.15565,0.251497,1.53998e-17,2.2377,-0.252048)"><stop offset="0" style="stop-color:rgb(243,111,157);stop-opacity:1"/><stop offset="1" style="stop-color:rgb(255,190,73);stop-opacity:1"/></linearGradient>
        <linearGradient id="_Linear19" x1="0" y1="0" x2="1" y2="0" gradientUnits="userSpaceOnUse" gradientTransform="matrix(7.07633e-17,-1.15565,0.251497,1.53998e-17,1.34553,-0.252048)"><stop offset="0" style="stop-color:rgb(243,111,157);stop-opacity:1"/><stop offset="1" style="stop-color:rgb(255,190,73);stop-opacity:1"/></linearGradient>
        <linearGradient id="_Linear20" x1="0" y1="0" x2="1" y2="0" gradientUnits="userSpaceOnUse" gradientTransform="matrix(7.07633e-17,-1.15565,0.251497,1.53998e-17,0.508536,-0.252048)"><stop offset="0" style="stop-color:rgb(243,111,157);stop-opacity:1"/><stop offset="1" style="stop-color:rgb(255,190,73);stop-opacity:1"/></linearGradient>
        <linearGradient id="_Linear21" x1="0" y1="0" x2="1" y2="0" gradientUnits="userSpaceOnUse" gradientTransform="matrix(7.07633e-17,-1.15565,0.251497,1.53998e-17,-0.328456,-0.252048)"><stop offset="0" style="stop-color:rgb(243,111,157);stop-opacity:1"/><stop offset="1" style="stop-color:rgb(255,190,73);stop-opacity:1"/></linearGradient>
        <linearGradient id="_Linear22" x1="0" y1="0" x2="1" y2="0" gradientUnits="userSpaceOnUse" gradientTransform="matrix(7.07633e-17,-1.15565,0.251497,1.53998e-17,-1.1093,-0.252048)"><stop offset="0" style="stop-color:rgb(243,111,157);stop-opacity:1"/><stop offset="1" style="stop-color:rgb(255,190,73);stop-opacity:1"/></linearGradient>
        <linearGradient id="_Linear23" x1="0" y1="0" x2="1" y2="0" gradientUnits="userSpaceOnUse" gradientTransform="matrix(7.07633e-17,-1.15565,0.251497,1.53998e-17,-2.00146,-0.252048)"><stop offset="0" style="stop-color:rgb(243,111,157);stop-opacity:1"/><stop offset="1" style="stop-color:rgb(255,190,73);stop-opacity:1"/></linearGradient>
    </defs>
</svg>
