<?xml version="1.0" encoding="UTF-8" standalone="no"?>
<!DOCTYPE svg PUBLIC "-//W3C//DTD SVG 1.1//EN" "http://www.w3.org/Graphics/SVG/1.1/DTD/svg11.dtd">
<svg width="100%" height="100%" viewBox="0 0 833 176" version="1.1" xmlns="http://www.w3.org/2000/svg" xmlns:xlink="http://www.w3.org/1999/xlink" xml:space="preserve" xmlns:serif="http://www.serif.com/" style="fill-rule:evenodd;clip-rule:evenodd;stroke-linejoin:round;stroke-miterlimit:2;">
    <g transform="matrix(1,0,0,1,-178.802,-118.082)">
        <g transform="matrix(1,0,0,1,595.225,0)">
            <g transform="matrix(1,0,0,1,-160.634,133.575)">
                <path d="M0,74.651C-5.681,73.001 -10.244,70.858 -13.688,68.219L-7.641,54.806C-4.343,57.225 -0.423,59.168 4.123,60.633C8.666,62.1 13.21,62.832 17.755,62.832C22.813,62.832 26.551,62.081 28.97,60.578C31.389,59.076 32.598,57.079 32.598,54.586C32.598,52.755 31.883,51.233 30.454,50.024C29.025,48.814 27.192,47.843 24.957,47.11C22.72,46.378 19.697,45.571 15.886,44.691C10.022,43.3 5.222,41.907 1.484,40.513C-2.254,39.122 -5.461,36.885 -8.136,33.807C-10.813,30.728 -12.149,26.624 -12.149,21.493C-12.149,17.023 -10.94,12.973 -8.521,9.344C-6.102,5.716 -2.457,2.84 2.419,0.714C7.292,-1.411 13.248,-2.474 20.284,-2.474C25.194,-2.474 29.995,-1.887 34.687,-0.716C39.376,0.458 43.482,2.143 47.001,4.342L41.503,17.865C34.393,13.835 27.283,11.818 20.175,11.818C15.189,11.818 11.506,12.625 9.125,14.237C6.742,15.85 5.552,17.975 5.552,20.614C5.552,23.252 6.926,25.214 9.675,26.496C12.423,27.779 16.619,29.043 22.263,30.288C28.126,31.682 32.928,33.075 36.666,34.466C40.404,35.86 43.609,38.058 46.286,41.063C48.96,44.07 50.299,48.137 50.299,53.267C50.299,57.664 49.071,61.678 46.616,65.305C44.159,68.934 40.476,71.811 35.567,73.936C30.655,76.061 24.682,77.125 17.646,77.125C11.561,77.125 5.679,76.3 0,74.651" style="fill:rgb(16,19,20);fill-rule:nonzero;"/>
            </g>
        </g>
        <g transform="matrix(1,0,0,1,595.225,0)">
            <g transform="matrix(1,0,0,1,-82.2151,194.868)">
                <path d="M0,-47.935L-24.627,-47.935L-24.627,-62.448L42.438,-62.448L42.438,-47.935L17.811,-47.935L17.811,14.513L0,14.513L0,-47.935Z" style="fill:rgb(16,19,20);fill-rule:nonzero;"/>
            </g>
        </g>
        <g transform="matrix(1,0,0,1,595.225,0)">
            <g transform="matrix(1,0,0,1,6.71799,162.435)">
                <path d="M0,16.931L-12.204,-12.534L-24.408,16.931L0,16.931ZM5.608,30.454L-30.125,30.454L-36.941,46.946L-55.191,46.946L-20.889,-30.015L-3.298,-30.015L31.114,46.946L12.424,46.946L5.608,30.454Z" style="fill:rgb(16,19,20);fill-rule:nonzero;"/>
            </g>
        </g>
        <g transform="matrix(1,0,0,1,595.225,0)">
            <g transform="matrix(1,0,0,1,89.3089,191.405)">
                <path d="M0,-41.009C-2.786,-43.318 -6.854,-44.472 -12.203,-44.472L-26.716,-44.472L-26.716,-17.646L-12.203,-17.646C-6.854,-17.646 -2.786,-18.817 0,-21.164C2.785,-23.509 4.178,-26.807 4.178,-31.059C4.178,-35.383 2.785,-38.7 0,-41.009M4.507,17.976L-10.335,-3.463L-26.716,-3.463L-26.716,17.976L-44.527,17.976L-44.527,-58.985L-11.214,-58.985C-4.397,-58.985 1.521,-57.848 6.542,-55.576C11.562,-53.304 15.429,-50.079 18.141,-45.901C20.852,-41.723 22.209,-36.776 22.209,-31.059C22.209,-25.342 20.835,-20.412 18.086,-16.272C15.337,-12.13 11.435,-8.961 6.377,-6.761L23.638,17.976L4.507,17.976Z" style="fill:rgb(16,19,20);fill-rule:nonzero;"/>
            </g>
        </g>
        <g transform="matrix(1,0,0,1,595.225,0)">
            <g transform="matrix(1,0,0,1,120.215,209.381)">
                <path d="M0,-76.961L17.811,-76.961L17.811,-14.513L56.401,-14.513L56.401,0L0,0L0,-76.961Z" style="fill:rgb(16,19,20);fill-rule:nonzero;"/>
            </g>
        </g>
        <g transform="matrix(1,0,0,1,595.225,0)">
            <g transform="matrix(1,0,0,1,237.73,162.435)">
                <path d="M0,16.931L-12.204,-12.534L-24.408,16.931L0,16.931ZM5.607,30.454L-30.125,30.454L-36.941,46.946L-55.192,46.946L-20.889,-30.015L-3.298,-30.015L31.114,46.946L12.423,46.946L5.607,30.454Z" style="fill:rgb(16,19,20);fill-rule:nonzero;"/>
            </g>
        </g>
        <g transform="matrix(1,0,0,1,595.225,0)">
            <g transform="matrix(1,0,0,1,345.303,209.381)">
                <path d="M0,-76.961L0,0L-14.623,0L-52.993,-46.727L-52.993,0L-70.584,0L-70.584,-76.961L-55.851,-76.961L-17.591,-30.235L-17.591,-76.961L0,-76.961Z" style="fill:rgb(16,19,20);fill-rule:nonzero;"/>
            </g>
        </g>
        <g transform="matrix(1,0,0,1,595.225,0)">
            <g transform="matrix(1,0,0,1,415.618,146.712)">
                <path d="M0,48.376L0,62.668L-59.589,62.668L-59.589,-14.292L-1.429,-14.292L-1.429,0.001L-41.888,0.001L-41.888,16.712L-6.157,16.712L-6.157,30.565L-41.888,30.565L-41.888,48.376L0,48.376Z" style="fill:rgb(16,19,20);fill-rule:nonzero;"/>
            </g>
        </g>
        <g transform="matrix(1,0,0,1,595.225,0)">
            <g transform="matrix(1,0,0,1,-166.483,233.616)">
                <path d="M0,45.275C-3.326,44.167 -5.94,42.73 -7.84,40.965L-5.329,35.671C-3.519,37.299 -1.2,38.623 1.629,39.641C4.457,40.66 7.365,41.169 10.351,41.169C14.288,41.169 17.23,40.502 19.176,39.166C21.121,37.832 22.095,36.055 22.095,33.837C22.095,32.208 21.562,30.884 20.5,29.867C19.436,28.848 18.124,28.067 16.563,27.525C15.001,26.982 12.795,26.371 9.944,25.691C6.369,24.832 3.484,23.973 1.29,23.113C-0.906,22.254 -2.783,20.93 -4.344,19.141C-5.906,17.355 -6.686,14.945 -6.686,11.913C-6.686,9.379 -6.019,7.093 -4.684,5.056C-3.349,3.02 -1.324,1.391 1.392,0.169C4.107,-1.053 7.477,-1.663 11.506,-1.663C14.311,-1.663 17.072,-1.301 19.787,-0.578C22.502,0.147 24.832,1.187 26.778,2.545L24.539,7.976C22.547,6.709 20.42,5.747 18.158,5.09C15.895,4.435 13.677,4.106 11.506,4.106C7.659,4.106 4.774,4.808 2.851,6.21C0.927,7.614 -0.034,9.424 -0.034,11.641C-0.034,13.27 0.509,14.593 1.595,15.611C2.681,16.63 4.027,17.422 5.634,17.987C7.24,18.554 9.423,19.153 12.184,19.787C15.759,20.646 18.633,21.506 20.805,22.365C22.977,23.226 24.844,24.538 26.405,26.302C27.966,28.067 28.747,30.443 28.747,33.43C28.747,35.92 28.068,38.194 26.711,40.252C25.353,42.312 23.293,43.941 20.534,45.14C17.773,46.339 14.379,46.938 10.351,46.938C6.776,46.938 3.326,46.384 0,45.275" style="fill:rgb(102,121,154);fill-rule:nonzero;"/>
            </g>
        </g>
        <g transform="matrix(1,0,0,1,595.225,0)">
            <g transform="matrix(1,0,0,1,-71.5533,274.105)">
                <path d="M0,-35.704L-16.291,-35.704L-16.291,-41.61L23.01,-41.61L23.01,-35.704L6.72,-35.704L6.72,5.906L0,5.906L0,-35.704Z" style="fill:rgb(102,121,154);fill-rule:nonzero;"/>
            </g>
        </g>
        <g transform="matrix(1,0,0,1,595.225,0)">
            <g transform="matrix(1,0,0,1,10.3779,237.925)">
                <path d="M0,37.199C-3.53,33.579 -5.295,28.375 -5.295,21.586L-5.295,-5.43L1.493,-5.43L1.493,21.315C1.493,31.497 5.95,36.588 14.865,36.588C19.21,36.588 22.536,35.332 24.844,32.821C27.152,30.309 28.306,26.474 28.306,21.315L28.306,-5.43L34.89,-5.43L34.89,21.586C34.89,28.42 33.125,33.636 29.595,37.233C26.066,40.831 21.133,42.629 14.797,42.629C8.461,42.629 3.53,40.82 0,37.199" style="fill:rgb(102,121,154);fill-rule:nonzero;"/>
            </g>
        </g>
        <g transform="matrix(1,0,0,1,595.225,0)">
            <g transform="matrix(1,0,0,1,126.316,238.401)">
                <path d="M0,35.704C3.846,35.704 7.228,34.958 10.148,33.464C13.067,31.971 15.317,29.879 16.902,27.185C18.485,24.493 19.278,21.381 19.278,17.852C19.278,14.322 18.485,11.212 16.902,8.518C15.317,5.826 13.067,3.733 10.148,2.239C7.228,0.746 3.846,-0.001 0,-0.001L-12.83,-0.001L-12.83,35.704L0,35.704ZM-19.617,-5.906L0.407,-5.906C5.43,-5.906 9.887,-4.911 13.78,-2.919C17.67,-0.927 20.692,1.866 22.841,5.464C24.99,9.061 26.066,13.191 26.066,17.852C26.066,22.514 24.99,26.642 22.841,30.239C20.692,33.837 17.67,36.632 13.78,38.623C9.887,40.615 5.43,41.61 0.407,41.61L-19.617,41.61L-19.617,-5.906Z" style="fill:rgb(102,121,154);fill-rule:nonzero;"/>
            </g>
        </g>
        <g transform="matrix(1,0,0,1,595.225,0)">
            <g transform="matrix(1,0,0,1,-559.438,-329.384)">
                <rect x="769.721" y="561.879" width="6.788" height="47.516" style="fill:rgb(102,121,154);"/>
            </g>
        </g>
        <g transform="matrix(1,0,0,1,595.225,0)">
            <g transform="matrix(1,0,0,1,309.692,240.369)">
                <path d="M0,31.768C2.783,30.184 4.977,28.001 6.585,25.218C8.19,22.434 8.994,19.324 8.994,15.884C8.994,12.445 8.19,9.334 6.585,6.551C4.977,3.767 2.783,1.584 0,0C-2.783,-1.583 -5.918,-2.375 -9.402,-2.375C-12.886,-2.375 -16.043,-1.583 -18.871,0C-21.699,1.584 -23.917,3.767 -25.523,6.551C-27.13,9.334 -27.932,12.445 -27.932,15.884C-27.932,19.324 -27.13,22.434 -25.523,25.218C-23.917,28.001 -21.699,30.184 -18.871,31.768C-16.043,33.353 -12.886,34.144 -9.402,34.144C-5.918,34.144 -2.783,33.353 0,31.768M-22.367,37.029C-26.213,34.925 -29.233,32.017 -31.428,28.307C-33.623,24.596 -34.721,20.455 -34.721,15.884C-34.721,11.314 -33.623,7.174 -31.428,3.462C-29.233,-0.248 -26.213,-3.156 -22.367,-5.261C-18.521,-7.365 -14.198,-8.417 -9.402,-8.417C-4.65,-8.417 -0.351,-7.365 3.496,-5.261C7.342,-3.156 10.352,-0.26 12.524,3.428C14.696,7.117 15.782,11.269 15.782,15.884C15.782,20.5 14.696,24.652 12.524,28.34C10.352,32.029 7.342,34.925 3.496,37.029C-0.351,39.133 -4.65,40.185 -9.402,40.185C-14.198,40.185 -18.521,39.133 -22.367,37.029" style="fill:rgb(102,121,154);fill-rule:nonzero;"/>
            </g>
        </g>
        <g transform="matrix(1,0,0,1,595.225,0)">
            <g transform="matrix(1,0,0,1,386.871,233.616)">
                <path d="M0,45.275C-3.326,44.167 -5.939,42.73 -7.839,40.965L-5.328,35.671C-3.519,37.299 -1.199,38.623 1.629,39.641C4.457,40.66 7.365,41.169 10.352,41.169C14.289,41.169 17.23,40.502 19.176,39.166C21.122,37.832 22.095,36.055 22.095,33.837C22.095,32.208 21.563,30.884 20.5,29.867C19.436,28.848 18.124,28.067 16.563,27.525C15.002,26.982 12.796,26.371 9.945,25.691C6.369,24.832 3.484,23.973 1.29,23.113C-0.906,22.254 -2.782,20.93 -4.343,19.141C-5.906,17.355 -6.686,14.945 -6.686,11.913C-6.686,9.379 -6.018,7.093 -4.684,5.056C-3.349,3.02 -1.323,1.391 1.392,0.169C4.107,-1.053 7.478,-1.663 11.506,-1.663C14.312,-1.663 17.072,-1.301 19.787,-0.578C22.502,0.147 24.833,1.187 26.78,2.545L24.539,7.976C22.547,6.709 20.421,5.747 18.158,5.09C15.895,4.435 13.678,4.106 11.506,4.106C7.66,4.106 4.775,4.808 2.852,6.21C0.927,7.614 -0.034,9.424 -0.034,11.641C-0.034,13.27 0.509,14.593 1.596,15.611C2.681,16.63 4.028,17.422 5.635,17.987C7.24,18.554 9.425,19.153 12.185,19.787C15.759,20.646 18.633,21.506 20.806,22.365C22.978,23.226 24.845,24.538 26.406,26.302C27.967,28.067 28.747,30.443 28.747,33.43C28.747,35.92 28.069,38.194 26.711,40.252C25.354,42.312 23.294,43.941 20.534,45.14C17.773,46.339 14.379,46.938 10.352,46.938C6.777,46.938 3.326,46.384 0,45.275" style="fill:rgb(102,121,154);fill-rule:nonzero;"/>
            </g>
        </g>
        <g transform="matrix(1,0,0,1,595.225,0)">
            <g transform="matrix(1,0,0,1,-596.297,-418.667)">
                <path d="M181.015,576.183C182.149,573.469 184.713,571.854 187.418,571.772C188.556,571.737 189.721,571.975 190.813,572.517L199.275,577.113C202.695,578.806 204.403,582.864 202.935,586.385C201.326,590.244 196.827,591.886 193.14,590.061L190.428,588.719L184.665,585.458C181.248,583.761 179.544,579.703 181.015,576.183ZM281.647,537.925C281.901,537.923 282.148,537.922 282.401,537.922C329.311,537.925 368.228,575.549 369.694,622.524C371.218,671.298 332.577,711.753 283.941,712.621C243.514,713.344 209.017,686.484 198.397,649.372C196.449,642.567 203.582,636.742 209.828,640.073L236.028,654.047C239.506,655.902 243.48,656.616 247.387,656.086L265.999,653.561L265.987,653.475L266.034,653.556L278.766,675.416C281.235,679.654 286.362,681.701 291.196,680.113C294.651,678.978 297.204,676.029 298.131,672.513L304.528,648.246L304.531,648.269L323.066,645.417C335.745,643.688 336.632,635.203 336.632,635.203C337.542,625.798 329.019,620.785 329.019,620.785L310.277,610.789L314.137,592.88C316.954,579.638 307.805,574.759 307.805,574.759L296.359,568.654L287.641,564.005L268.226,553.643C261.366,549.98 263.247,539.674 270.959,538.665C274.459,538.207 278.025,537.956 281.647,537.925ZM211.74,549.357C212.869,546.901 215.272,545.493 217.761,545.493C218.813,545.493 219.881,545.744 220.874,546.275L233.374,552.959L265.709,570.223L276.215,575.826C279.336,577.491 280.818,581.306 279.344,584.521C277.744,588.013 273.563,589.388 270.224,587.608L259.491,581.883L241.53,572.302L222.18,561.982L222.184,561.978L214.864,558.064C211.741,556.395 210.26,552.574 211.74,549.357ZM215.807,581.361C217.023,578.683 219.635,577.146 222.341,577.146C223.48,577.146 224.637,577.419 225.712,577.994L235.655,583.282L238.108,584.589C241.475,586.385 243.059,590.493 241.485,593.968C239.759,597.776 235.212,599.281 231.583,597.345L228.913,595.921L219.174,590.742C215.81,588.943 214.23,584.835 215.807,581.361ZM190.773,604.413C191.959,602.193 194.234,600.93 196.586,600.93C197.632,600.93 198.694,601.18 199.681,601.707L233.55,619.93L234.896,620.648C238.15,622.381 239.382,626.426 237.649,629.68C235.915,632.934 231.871,634.166 228.616,632.432L227.271,631.716L193.369,613.525C190.162,611.813 188.951,607.824 190.664,604.617L190.773,604.413Z" style="fill:url(#_Linear1);"/>
            </g>
        </g>
        <g transform="matrix(1,0,0,1,595.225,0)">
            <g transform="matrix(1.00322,0,0,1.00322,-597.489,-421.575)">
                <path d="M181.015,576.183C182.149,573.469 184.713,571.854 187.418,571.772C188.556,571.737 189.721,571.975 190.813,572.517L199.275,577.113C202.695,578.806 204.403,582.864 202.935,586.385C201.326,590.244 196.827,591.886 193.14,590.061L190.428,588.719L184.665,585.458C181.248,583.761 179.544,579.703 181.015,576.183ZM281.647,537.925C281.901,537.923 282.148,537.922 282.401,537.922C329.311,537.925 368.228,575.549 369.694,622.524C371.218,671.298 332.577,711.753 283.941,712.621C243.514,713.344 209.017,686.484 198.397,649.372C196.449,642.567 203.582,636.742 209.828,640.073L236.028,654.047C239.506,655.902 243.48,656.616 247.387,656.086L265.999,653.561L265.987,653.475L266.034,653.556L278.766,675.416C281.235,679.654 286.362,681.701 291.196,680.113C294.651,678.978 297.204,676.029 298.131,672.513L304.528,648.246L304.531,648.269L323.066,645.417C335.745,643.688 336.632,635.203 336.632,635.203C337.542,625.798 329.019,620.785 329.019,620.785L310.277,610.789L314.137,592.88C316.954,579.638 307.805,574.759 307.805,574.759L296.359,568.654L287.641,564.005L268.226,553.643C261.366,549.98 263.247,539.674 270.959,538.665C274.459,538.207 278.025,537.956 281.647,537.925ZM211.74,549.357C212.869,546.901 215.272,545.493 217.761,545.493C218.813,545.493 219.881,545.744 220.874,546.275L233.374,552.959L265.709,570.223L276.215,575.826C279.336,577.491 280.818,581.306 279.344,584.521C277.744,588.013 273.563,589.388 270.224,587.608L259.491,581.883L241.53,572.302L222.18,561.982L222.184,561.978L214.864,558.064C211.741,556.395 210.26,552.574 211.74,549.357ZM215.807,581.361C217.023,578.683 219.635,577.146 222.341,577.146C223.48,577.146 224.637,577.419 225.712,577.994L235.655,583.282L238.108,584.589C241.475,586.385 243.059,590.493 241.485,593.968C239.759,597.776 235.212,599.281 231.583,597.345L228.913,595.921L219.174,590.742C215.81,588.943 214.23,584.835 215.807,581.361ZM190.773,604.413C191.959,602.193 194.234,600.93 196.586,600.93C197.632,600.93 198.694,601.18 199.681,601.707L233.55,619.93L234.896,620.648C238.15,622.381 239.382,626.426 237.649,629.68C235.915,632.934 231.871,634.166 228.616,632.432L227.271,631.716L193.369,613.525C190.162,611.813 188.951,607.824 190.664,604.617L190.773,604.413Z" style="fill:url(#_Linear2);"/>
            </g>
        </g>
        <g transform="matrix(1,0,0,1,595.225,0)">
            <g transform="matrix(38.2563,-70.2164,-70.2164,-38.2563,-330.887,233.373)">
                <path d="M0.864,0.062L0.614,0.152L0.6,0.418C0.597,0.475 0.524,0.498 0.489,0.453L0.326,0.242L0.069,0.311C0.013,0.326 -0.031,0.264 0.001,0.216L0.151,-0.004L0.006,-0.227C-0.026,-0.275 0.02,-0.337 0.076,-0.321L0.331,-0.246L0.498,-0.453C0.535,-0.498 0.607,-0.473 0.609,-0.416L0.617,-0.15L0.865,-0.055C0.904,-0.04 0.914,0.003 0.898,0.034C0.891,0.046 0.88,0.056 0.864,0.062Z" style="fill:url(#_Linear3);fill-rule:nonzero;"/>
            </g>
        </g>
        <g transform="matrix(1,0,0,1,595.225,0)">
            <g transform="matrix(-0.213736,-0.980192,-0.980192,0.213736,-299.458,128.503)">
                <path d="M-5.76,-7.151C-9.984,-7.111 -12.788,-2.911 -11.204,1.006C-10.32,3.194 -8.12,4.662 -5.76,4.639C-1.536,4.599 1.268,0.399 -0.316,-3.518C-1.2,-5.706 -3.4,-7.174 -5.76,-7.151" style="fill:white;fill-rule:nonzero;"/>
            </g>
        </g>
        <g transform="matrix(1,0,0,1,595.225,0)">
            <g transform="matrix(-0.24675,-0.972406,-0.972406,0.24675,-341.621,253.259)">
                <path d="M-3.299,-4.241C-5.839,-4.209 -7.449,-1.611 -6.347,0.677C-5.791,1.831 -4.579,2.582 -3.299,2.566C-0.759,2.535 0.851,-0.063 -0.251,-2.352C-0.807,-3.505 -2.019,-4.257 -3.299,-4.241" style="fill:white;fill-rule:nonzero;"/>
            </g>
        </g>
        <g transform="matrix(1,0,0,1,595.225,0)">
            <g transform="matrix(-0.24675,-0.972406,-0.972406,0.24675,-258.006,188.072)">
                <path d="M-3.299,-4.24C-5.839,-4.208 -7.448,-1.611 -6.347,0.678C-5.791,1.831 -4.579,2.582 -3.299,2.566C-0.758,2.534 0.851,-0.062 -0.25,-2.352C-0.806,-3.504 -2.018,-4.256 -3.299,-4.24" style="fill:white;fill-rule:nonzero;"/>
            </g>
        </g>
        <g transform="matrix(1,0,0,1,595.225,0)">
            <g transform="matrix(0.136937,0.993835,0.993835,-0.136937,-264.781,149.715)">
                <path d="M6.579,-5.735C5.136,-2.865 2.807,-0.536 -0.063,0.907C2.807,2.349 5.137,4.678 6.579,7.548C8.022,4.678 10.351,2.349 13.221,0.907C10.35,-0.536 8.021,-2.865 6.579,-5.735" style="fill:white;fill-rule:nonzero;"/>
            </g>
        </g>
        <g transform="matrix(1,0,0,1,595.225,0)">
            <g transform="matrix(-0.246728,-0.972412,-0.972412,0.246728,-245.621,218.172)">
                <path d="M-4.493,-5.775C-7.953,-5.732 -10.145,-2.194 -8.644,0.923C-7.888,2.493 -6.236,3.517 -4.493,3.495C-1.033,3.452 1.159,-0.086 -0.342,-3.203C-1.098,-4.773 -2.75,-5.797 -4.493,-5.775" style="fill:white;fill-rule:nonzero;"/>
            </g>
        </g>
        <g transform="matrix(1,0,0,1,595.225,0)">
            <g transform="matrix(0.136937,0.993835,0.993835,-0.136937,-314.757,270.934)">
                <path d="M6.579,-5.735C5.136,-2.865 2.807,-0.536 -0.063,0.907C2.807,2.349 5.137,4.678 6.579,7.548C8.022,4.678 10.351,2.349 13.221,0.907C10.35,-0.536 8.021,-2.865 6.579,-5.735" style="fill:white;fill-rule:nonzero;"/>
            </g>
        </g>
        <g transform="matrix(1,0,0,1,595.225,0)">
            <g transform="matrix(0.159852,1.16014,1.16014,-0.159852,-373.541,240.099)">
                <path d="M6.579,-5.735C5.136,-2.865 2.807,-0.536 -0.063,0.907C2.807,2.349 5.137,4.678 6.579,7.548C8.022,4.678 10.351,2.349 13.221,0.907C10.35,-0.536 8.021,-2.865 6.579,-5.735" style="fill:white;fill-rule:nonzero;"/>
            </g>
        </g>
        <g transform="matrix(1,0,0,1,595.225,0)">
            <g transform="matrix(0.136934,0.993835,0.993835,-0.136934,-276.526,243.258)">
                <path d="M9.138,-7.964C7.134,-3.979 3.9,-0.744 -0.086,1.259C3.899,3.263 7.134,6.497 9.138,10.483C11.141,6.498 14.375,3.263 18.361,1.26C14.376,-0.744 11.142,-3.979 9.138,-7.964" style="fill:white;fill-rule:nonzero;"/>
            </g>
        </g>
    </g>
    <defs>
        <linearGradient id="_Linear1" x1="0" y1="0" x2="1" y2="0" gradientUnits="userSpaceOnUse" gradientTransform="matrix(205.445,0,0,-171.609,167.95,639.979)"><stop offset="0" style="stop-color:rgb(215,91,255);stop-opacity:1"/><stop offset="1" style="stop-color:rgb(52,124,245);stop-opacity:1"/></linearGradient>
        <linearGradient id="_Linear2" x1="0" y1="0" x2="1" y2="0" gradientUnits="userSpaceOnUse" gradientTransform="matrix(156.729,-75.3696,75.3696,156.729,203.008,661.69)"><stop offset="0" style="stop-color:rgb(228,91,255);stop-opacity:1"/><stop offset="1" style="stop-color:rgb(52,124,245);stop-opacity:1"/></linearGradient>
        <linearGradient id="_Linear3" x1="0" y1="0" x2="1" y2="0" gradientUnits="userSpaceOnUse" gradientTransform="matrix(0.925492,0.00455757,-0.00474557,0.963669,-0.0201337,-0.00273092)"><stop offset="0" style="stop-color:rgb(255,157,53);stop-opacity:1"/><stop offset="0.53" style="stop-color:rgb(255,182,41);stop-opacity:1"/><stop offset="1" style="stop-color:rgb(255,192,36);stop-opacity:1"/></linearGradient>
    </defs>
</svg>
