<?xml version="1.0" encoding="UTF-8" standalone="no"?>
<!DOCTYPE svg PUBLIC "-//W3C//DTD SVG 1.1//EN" "http://www.w3.org/Graphics/SVG/1.1/DTD/svg11.dtd">
<svg width="100%" height="100%" viewBox="0 0 190 190" version="1.1" xmlns="http://www.w3.org/2000/svg" xmlns:xlink="http://www.w3.org/1999/xlink" xml:space="preserve" xmlns:serif="http://www.serif.com/" style="fill-rule:evenodd;clip-rule:evenodd;stroke-linejoin:round;stroke-miterlimit:2;">
    <g transform="matrix(0.946937,0,0,0.946937,-165.885,-497.449)">
        <path d="M181.015,576.183C182.149,573.469 184.713,571.854 187.418,571.772C188.556,571.737 189.721,571.975 190.813,572.517L199.275,577.113C202.695,578.806 204.403,582.864 202.935,586.385C201.326,590.244 196.827,591.886 193.14,590.061L190.428,588.719L184.665,585.458C181.248,583.761 179.544,579.703 181.015,576.183ZM281.647,537.925C281.901,537.923 282.148,537.922 282.401,537.922C329.311,537.925 368.228,575.549 369.694,622.524C371.218,671.298 332.577,711.753 283.941,712.621C243.514,713.344 209.017,686.484 198.397,649.372C196.449,642.567 203.582,636.742 209.828,640.073L236.028,654.047C239.506,655.902 243.48,656.616 247.387,656.086L265.999,653.561L265.987,653.475L266.034,653.556L278.766,675.416C281.235,679.654 286.362,681.701 291.196,680.113C294.651,678.978 297.204,676.029 298.131,672.513L304.528,648.246L304.531,648.269L323.066,645.417C335.745,643.688 336.632,635.203 336.632,635.203C337.542,625.798 329.019,620.785 329.019,620.785L310.277,610.789L314.137,592.88C316.954,579.638 307.805,574.759 307.805,574.759L296.359,568.654L287.641,564.005L268.226,553.643C261.366,549.98 263.247,539.674 270.959,538.665C274.459,538.207 278.025,537.956 281.647,537.925ZM211.74,549.357C212.869,546.901 215.272,545.493 217.761,545.493C218.813,545.493 219.881,545.744 220.874,546.275L233.374,552.959L265.709,570.223L276.215,575.826C279.336,577.491 280.818,581.306 279.344,584.521C277.744,588.013 273.563,589.388 270.224,587.608L259.491,581.883L241.53,572.302L222.18,561.982L222.184,561.978L214.864,558.064C211.741,556.395 210.26,552.574 211.74,549.357ZM215.807,581.361C217.023,578.683 219.635,577.146 222.341,577.146C223.48,577.146 224.637,577.419 225.712,577.994L235.655,583.282L238.108,584.589C241.475,586.385 243.059,590.493 241.485,593.968C239.759,597.776 235.212,599.281 231.583,597.345L228.913,595.921L219.174,590.742C215.81,588.943 214.23,584.835 215.807,581.361ZM190.773,604.413C191.959,602.193 194.234,600.93 196.586,600.93C197.632,600.93 198.694,601.18 199.681,601.707L233.55,619.93L234.896,620.648C238.15,622.381 239.382,626.426 237.649,629.68C235.915,632.934 231.871,634.166 228.616,632.432L227.271,631.716L193.369,613.525C190.162,611.813 188.951,607.824 190.664,604.617L190.773,604.413Z" style="fill:url(#_Linear1);"/>
    </g>
    <g transform="matrix(36.1098,-66.2768,-66.2768,-36.1098,85.7588,120.751)">
        <path d="M0.864,0.062L0.614,0.152L0.6,0.418C0.597,0.475 0.524,0.498 0.489,0.453L0.326,0.242L0.069,0.311C0.013,0.326 -0.031,0.264 0.001,0.216L0.151,-0.004L0.006,-0.227C-0.026,-0.275 0.02,-0.337 0.076,-0.321L0.331,-0.246L0.498,-0.453C0.535,-0.498 0.607,-0.473 0.609,-0.416L0.617,-0.15L0.865,-0.055C0.904,-0.04 0.914,0.003 0.898,0.034C0.891,0.046 0.88,0.056 0.864,0.062Z" style="fill:rgb(245,158,0);fill-rule:nonzero;"/>
    </g>
    <g transform="matrix(-0.201744,-0.925196,-0.925196,0.201744,115.424,21.7656)">
        <path d="M-5.76,-7.151C-9.984,-7.111 -12.788,-2.911 -11.204,1.006C-10.32,3.194 -8.12,4.662 -5.76,4.639C-1.536,4.599 1.268,0.399 -0.316,-3.518C-1.2,-5.706 -3.4,-7.174 -5.76,-7.151" style="fill:white;fill-rule:nonzero;"/>
    </g>
    <g transform="matrix(-0.232905,-0.917848,-0.917848,0.232905,75.6263,139.522)">
        <path d="M-3.299,-4.241C-5.839,-4.209 -7.449,-1.611 -6.347,0.677C-5.791,1.831 -4.579,2.582 -3.299,2.566C-0.759,2.535 0.851,-0.063 -0.251,-2.352C-0.807,-3.505 -2.019,-4.257 -3.299,-4.241" style="fill:white;fill-rule:nonzero;"/>
    </g>
    <g transform="matrix(-0.232905,-0.917848,-0.917848,0.232905,154.55,77.9918)">
        <path d="M-3.299,-4.24C-5.839,-4.208 -7.448,-1.611 -6.347,0.678C-5.791,1.831 -4.579,2.582 -3.299,2.566C-0.758,2.534 0.851,-0.062 -0.25,-2.352C-0.806,-3.504 -2.018,-4.256 -3.299,-4.24" style="fill:white;fill-rule:nonzero;"/>
    </g>
    <g transform="matrix(0.129254,0.938074,0.938074,-0.129254,148.156,41.7869)">
        <path d="M6.579,-5.735C5.136,-2.865 2.807,-0.536 -0.063,0.907C2.807,2.349 5.137,4.678 6.579,7.548C8.022,4.678 10.351,2.349 13.221,0.907C10.35,-0.536 8.021,-2.865 6.579,-5.735" style="fill:white;fill-rule:nonzero;"/>
    </g>
    <g transform="matrix(-0.232885,-0.917853,-0.917853,0.232885,166.241,106.403)">
        <path d="M-4.493,-5.775C-7.953,-5.732 -10.145,-2.194 -8.644,0.923C-7.888,2.493 -6.236,3.517 -4.493,3.495C-1.033,3.452 1.159,-0.086 -0.342,-3.203C-1.098,-4.773 -2.75,-5.797 -4.493,-5.775" style="fill:white;fill-rule:nonzero;"/>
    </g>
    <g transform="matrix(0.129254,0.938074,0.938074,-0.129254,100.984,156.205)">
        <path d="M6.579,-5.735C5.136,-2.865 2.807,-0.536 -0.063,0.907C2.807,2.349 5.137,4.678 6.579,7.548C8.022,4.678 10.351,2.349 13.221,0.907C10.35,-0.536 8.021,-2.865 6.579,-5.735" style="fill:white;fill-rule:nonzero;"/>
    </g>
    <g transform="matrix(0.150883,1.09505,1.09505,-0.150883,45.498,127.1)">
        <path d="M6.579,-5.735C5.136,-2.865 2.807,-0.536 -0.063,0.907C2.807,2.349 5.137,4.678 6.579,7.548C8.022,4.678 10.351,2.349 13.221,0.907C10.35,-0.536 8.021,-2.865 6.579,-5.735" style="fill:white;fill-rule:nonzero;"/>
    </g>
    <g transform="matrix(0.129251,0.938074,0.938074,-0.129251,137.069,130.081)">
        <path d="M9.138,-7.964C7.134,-3.979 3.9,-0.744 -0.086,1.259C3.899,3.263 7.134,6.497 9.138,10.483C11.141,6.498 14.375,3.263 18.361,1.26C14.376,-0.744 11.142,-3.979 9.138,-7.964" style="fill:white;fill-rule:nonzero;"/>
    </g>
    <defs>
        <linearGradient id="_Linear1" x1="0" y1="0" x2="1" y2="0" gradientUnits="userSpaceOnUse" gradientTransform="matrix(205.445,0,0,-171.609,167.95,639.979)"><stop offset="0" style="stop-color:rgb(215,91,255);stop-opacity:1"/><stop offset="1" style="stop-color:rgb(52,124,245);stop-opacity:1"/></linearGradient>
    </defs>
</svg>
